<?xml version="1.0" encoding="utf-8"?>
<!-- Generator: Adobe Illustrator 24.0.3, SVG Export Plug-In . SVG Version: 6.00 Build 0)  -->
<svg version="1.1" id="Layer_1" xmlns="http://www.w3.org/2000/svg" xmlns:xlink="http://www.w3.org/1999/xlink" x="0px" y="0px"
	 viewBox="0 0 388.9 124.2" style="enable-background:new 0 0 388.9 124.2;" xml:space="preserve">
<style type="text/css">
	.st0{fill:#FFFFFF;}
	.st1{fill:#F5333F;}
</style>
<g>
	<g>
		<path class="st0" d="M103.4,78.4c-21.3-5.6-37.9-13.5-49.7-23.8C42.8,64.3,25.9,72.8,3.1,80.3c-0.6-1.6-1.6-3.6-3.1-6.1
			C23.1,68,41.1,59,54.1,47.1l6.2,1.4c-0.9,0.9-1.9,1.9-3.1,2.8c14.2,10.3,30.6,17.3,49.3,21C105.6,73.9,104.6,76,103.4,78.4z
			 M28,71.9h50.6v5.6H56.4v10.7h40.8v5.6H56.4v19.6h50.2v5.6H0.4v-5.6h49.7V93.9H8.9v-5.6h41.3V77.5H28V71.9z M8.4,15.4h5.8v37.8
			H8.4V15.4z M20,100.4l4-3.7c2.1,1.6,5.3,4.5,9.8,8.9c1.5,1.2,2.5,2.2,3.1,2.8l-4.9,3.7c-1.2-0.9-3.1-2.8-5.8-5.6
			C23.2,103.7,21.2,101.6,20,100.4z M32.8,12.6h5.8v41.6h-5.8V12.6z M51.9,44.3c-0.3-0.3-0.9-0.8-1.8-1.4c-1.5-0.9-2.5-1.7-3.1-2.3
			c7.4-8.7,13-18.2,16.9-28.5l5.8,1.9c-0.6,1.2-1.5,3.1-2.7,5.6c-0.9,2.5-1.6,4.4-2.2,5.6h39.9v5.1h-43
			C59.3,34.7,56.1,39.4,51.9,44.3z M69.7,108.3c5.3-4.4,9.8-8.1,13.3-11.2l4,3.7c-2.4,2.5-6.4,5.8-12,9.8c-0.6,0.6-1,1.1-1.3,1.4
			L69.7,108.3z M89.2,57.4c-4.1-4.4-9.8-9.7-16.9-15.9c-0.6-0.3-1-0.6-1.3-0.9l4-4.2c5.9,4.7,12.1,10.1,18.6,16.4L89.2,57.4z"/>
		<path class="st1" d="M122.2,107.4c-0.3-0.6-0.6-1.2-0.9-1.9c-0.9-1.6-1.8-3-2.7-4.2c9.8-11.5,16.7-24.3,20.9-38.3h-18.2v-5.1h18.2
			V24.7c-0.3,0-0.6,0-0.9,0c-6.8,0.6-12.3,0.9-16.4,0.9l-0.9-5.6c13.3-0.3,26.5-1.1,39.5-2.3l0.9,5.6c-1.8,0-4.6,0.2-8.4,0.5
			c-3.6,0.3-6.4,0.6-8.4,0.9v33.2h16.4V63h-16.4v14.5l3.6-3.3c5.3,5.3,10.1,10.3,14.2,14.9l-4.4,4.2c-1.5-1.9-4.3-5.3-8.4-10.3
			c-2.4-2.2-4-3.9-4.9-5.1v46.2h-5.3V75.2C135.4,87.6,129.6,98.4,122.2,107.4z M121.3,34.5l4.9-1.9c0.9,1.9,2.2,4.8,4,8.9
			c1.8,3.7,3.1,6.7,4,8.9l-5.3,2.3C127.4,48.1,124.9,42,121.3,34.5z M154.6,52.8l-4.9-2.3c0.3-0.6,0.7-1.6,1.3-2.8
			c3.3-6.5,5.5-11.7,6.7-15.4l5.3,1.9C161,39.4,158.2,45.6,154.6,52.8z M162.2,98.1h30.6V81.7h-25.3v-5.6h25.3V63.5h5.8v12.6H223
			v5.6h-24.4v16.4h29.3v5.6h-29.3v20.6h-5.8v-20.6h-30.6V98.1z M167.9,24.3v-5.6h53.3v6.1C215,35.9,208.3,44,201.2,49
			c6.5,3.4,15.1,6.5,25.7,9.3c-0.3,0.6-0.6,1.2-0.9,1.9c-0.6,1.6-1,3-1.3,4.2c-11.5-3.1-21.2-7-28.8-11.7
			c-7.1,4.7-16.6,8.9-28.4,12.6c-0.3-2.2-1.2-4.2-2.7-6.1c10.7-2.8,19.4-6.2,26.2-10.3c-7.1-5.6-13-13.9-17.8-24.8H167.9z
			 M215.4,24.3H179c5,9.7,10.8,16.8,17.3,21.5C204,39.8,210.4,32.7,215.4,24.3z"/>
	</g>
</g>
<g>
	<g>
		<g>
			<g>
				<path class="st0" d="M250.9,49.9h-0.2l-3.8,23.7h-2.5l4.4-26.3l-4.4-24.7h3l3.3,21.4h0.2l3.5-21.4h2.5l-4.1,24.7l4.6,26.3h-3
					L250.9,49.9z"/>
				<path class="st0" d="M274.1,56.6V68c0,3.5-1.4,6.1-5.3,6.1c-4,0-5.4-2.6-5.4-6.1V28.4c0-3.8,1.4-6.1,5.4-6.1
					c3.9,0,5.3,2.3,5.3,6.1v10.3h-3v-9.8c0-2-0.4-3.5-2.3-3.5c-1.9,0-2.4,1.4-2.4,3.5v39.3c0,1.5,0.5,2.9,2.4,2.9
					c1.9,0,2.3-1.4,2.3-2.7V56.6H274.1z"/>
				<path class="st0" d="M281.9,37.3v-9.7c0-4,2.3-5.2,5.7-5.2c3.2,0,5.5,1.2,5.5,5.2v46.2h-3v-2.5H290c-0.6,1.5-1.5,2.9-3.9,2.9
					c-2.2,0-4.1-1-4.1-4.6V50.2c0-4.5,1.6-7.1,6.9-7.1h1.3V28.3c0-1.6-0.6-2.9-2.5-2.9c-2.2,0-2.7,1.3-2.7,2.9v8.9H281.9z
					 M284.9,68.7c0,1.4,0.6,2.3,2.2,2.3c1.7,0,3-2.4,3-5.6V46.1h-0.8c-2.8,0-4.4,0.8-4.4,4.7V68.7z"/>
				<path class="st0" d="M301.7,0.4h3v73.3h-3V0.4z"/>
				<path class="st0" d="M313.7,22.7h3v50.9h-3V22.7z"/>
				<g>
					<g>
						<path class="st1" d="M325.9,0.4h3v24.5h0.2c0.7-1.5,2.1-2.5,3.9-2.5c3,0,4.4,2,4.4,6v39.4c0,4-1.7,6.4-4.6,6.4
							c-2.4,0-3-1-3.6-2.3h-0.2v1.9h-3V0.4z M328.9,67.5c0,2.4,1.7,3.6,3.1,3.6c1.6,0,2.4-1.2,2.4-3.6V28.8c0-2.1-0.7-3.5-2.7-3.5
							c-1.8,0-2.8,2.6-2.8,4.7V67.5z"/>
					</g>
				</g>
				<g>
					<g>
						<path class="st1" d="M350.5,92.4h-2.5l1.7-18.3l-5.1-51.4h3l3.5,44h0.2l3.4-44h3L350.5,92.4z"/>
					</g>
				</g>
				<g>
					<g>
						<path class="st1" d="M388.9,56.7V68c0,3.5-1.7,6.1-5.6,6.1c-3.7,0-5.6-2.6-5.6-6.1V28.4c0-3.8,1.8-6.1,5.6-6.1
							c3.9,0,5.6,2.3,5.6,6.1v20.5h-8.2v18.7c0,2,0.6,3.5,2.6,3.5c2.1,0,2.7-1.4,2.7-3.5V56.7H388.9z M385.9,28.8
							c0-2-0.7-3.5-2.7-3.5c-1.8,0-2.6,1.4-2.6,3.5v17.1h5.2V28.8z"/>
					</g>
				</g>
			</g>
		</g>
		<g id="layer1_1_" transform="translate(243.40402,-497.08986)">
			<path id="path7717_1_" class="st0" d="M125.5,497.1c-1,0-1.3,0.4-1.7,0.7c0.6,0.4,1,1,1,2c0,1.2-0.1,2.5-0.2,3.3
				c0.3,0.2,0.4,0.6-0.1,0.7c0,0.3,0,0.5-0.1,0.8c0.2,0.3,0.4,0.4,0.4,0.5c-0.4,1.4-0.3,3-0.3,4.3c-0.1,1.2-0.2,2.4-0.2,3.6
				c0,0.4,0,0.9,0.1,1.3c-2.7,0-5.3,0.2-7.6,1.2l2,1.1c1.3-1.5,3.5-1.6,5.7-1.6c0,0.3,0.1,0.6,0.1,0.8c-0.1,0.6-0.3,1.2-0.5,1.7
				l0.4,65.2c0,3.6,0.7,5.2,1.2,6.9c0.5-1.8,1.2-3.3,1.2-6.9l0.4-65.2c-0.2-0.5-0.4-1.1-0.5-1.7c0-0.3,0.1-0.6,0.1-0.8
				c2.2,0,4.4,0.1,5.7,1.6l2-1.1c-2.3-1-4.9-1.1-7.6-1.2c0-0.4,0.1-0.9,0.1-1.3c0-1.2-0.2-2.4-0.2-3.6c0-1.6-0.1-2.9-0.3-4.3
				c0,0,0,0,0,0c0-0.1,0.1-0.3,0.4-0.5c-0.1-0.3-0.1-0.5-0.1-0.8c-0.4-0.1-0.3-0.5-0.1-0.7c-0.1-0.8-0.2-2.1-0.2-3.3
				c0-0.9,0.4-1.5,1-2C126.7,497.5,126.4,497.1,125.5,497.1z"/>
		</g>
	</g>
	<ellipse class="st0" cx="315.3" cy="17.1" rx="1.7" ry="2.1"/>
</g>
<g>
	<path class="st0" d="M251.4,102.4c0.2,0.5,0.5,1,0.8,1.5c-0.6,0.1-1.5,0.3-2.5,0.5v4.7c0.7,0,1.4,0,2.1-0.1v1.4
		c-0.7,0-1.4-0.1-2.1-0.1v6.3c0,0.8,0,1.8,0.1,3h-1.4c0-1.2,0.1-2.2,0.1-3v-4.4c-0.3,0.8-0.7,1.6-1.1,2.3c-0.4,0.7-0.8,1.5-1.3,2.3
		c-0.3-0.5-0.7-0.9-1-1.1c0.6-0.7,1.2-1.6,1.8-2.6c0.6-1,1-2,1.1-2.7c-0.7,0-1.5,0-2.3,0.1v-1.4c0.8,0.1,1.8,0.1,2.9,0.1v-4.5
		c-1.2,0.2-2.1,0.4-2.5,0.5c-0.1-0.5-0.3-0.9-0.6-1.4c1.6-0.1,2.8-0.3,3.8-0.5S250.9,102.7,251.4,102.4z M245.9,106.3
		c0.3-0.1,0.7-0.2,1.2-0.4c0.4,1.2,0.6,2,0.7,2.4c-0.5,0.1-0.9,0.2-1.2,0.4C246.5,108.3,246.3,107.5,245.9,106.3z M250,112
		c0.2-0.3,0.5-0.6,0.8-1c0.9,1,1.5,1.7,1.8,2c-0.4,0.4-0.7,0.7-0.9,1.1C251.4,113.7,250.8,113,250,112z M251.1,105.3
		c0.4,0.2,0.9,0.3,1.4,0.4c-0.3,0.4-0.6,1.3-0.8,2.7c-0.4-0.2-0.8-0.3-1.2-0.3C250.8,106.9,251,106,251.1,105.3z M252.7,103.2
		c0.8,0.1,1.5,0.1,2.2,0.1h5c-0.5,1.7-1.3,3.3-2.5,4.8c0.9,0.6,2.1,1,3.7,1.3c-0.5,0.4-0.7,0.9-0.8,1.5c-1.6-0.4-2.8-1-3.9-1.9
		c-1,0.8-2.1,1.5-3.4,2.1c-0.2-0.5-0.5-1-1-1.4c1.2-0.3,2.3-0.8,3.4-1.5c-0.9-1-1.6-2.2-1.9-3.7h1.2c0.4,1.2,0.9,2.2,1.7,2.8
		c0.9-1.1,1.4-2,1.7-2.8H255h-1.7c-0.2,0-0.4,0-0.6,0V103.2z M253.1,111.9c0.6,0.1,1.5,0.1,2.8,0.1c0-0.6,0-1.1-0.1-1.7h1.4
		c-0.1,0.6-0.1,1.2-0.1,1.7c1.2,0,2.2,0,2.9-0.1v1.4c-0.7,0-1.7-0.1-2.9-0.1v1.9c1.8,0,3.1,0,3.8-0.1v1.4c-0.7-0.1-2-0.1-3.8-0.1
		c0,1.4,0,2.6,0.1,3.4h-1.4c0-0.7,0.1-1.9,0.1-3.4c-1.7,0-2.9,0-3.5,0.1v-1.4c0.6,0.1,1.8,0.1,3.5,0.1v-1.9c-1.3,0-2.2,0-2.8,0.1
		V111.9z"/>
	<path class="st0" d="M270.8,119.1c-0.1-0.6-0.3-1.1-0.5-1.8c0.7,0.1,1.2,0,1.5,0c0.3-0.1,0.5-0.6,0.6-1.7c0.1-1,0.1-2.5,0.2-4.2
		h-2.5c-0.1,1.8-0.3,3.3-0.8,4.6c-0.4,1.3-1,2.5-1.9,3.7c-0.4-0.4-0.8-0.7-1.2-1c0.7-0.9,1.2-1.7,1.5-2.4c0.3-0.7,0.6-1.6,0.8-2.7
		c0.2-1,0.3-3,0.3-6c-0.7,0-1.4,0-2.3,0.1v-1.3c0.8,0.1,1.5,0.1,2,0.1h3.7c0.7,0,1.4,0,2-0.1v1.3c-0.6,0-1.3-0.1-2-0.1h-2.1v2.5h3.6
		c-0.1,3-0.2,4.9-0.2,5.8c-0.1,0.9-0.2,1.5-0.3,2c-0.1,0.4-0.4,0.7-0.7,0.8C272.2,118.8,271.6,118.9,270.8,119.1z M269.6,102.8
		c0.5-0.1,0.9-0.3,1.4-0.5c0.3,1.1,0.6,2.1,0.9,3.2c-0.5,0.1-0.9,0.3-1.4,0.5C270.3,104.9,270,103.8,269.6,102.8z M273.5,118.5
		c1.6-0.5,2.9-1.2,3.9-2.4c-0.6-1-1-2-1.3-2.9c-0.3-1-0.6-2-0.8-3c-0.1,0.3-0.3,0.7-0.6,1.1c-0.2-0.5-0.5-1-0.9-1.4
		c0.4-0.5,0.9-1.5,1.4-2.9c0.5-1.5,0.9-3,1.2-4.6c0.6,0.3,1.2,0.5,1.7,0.6c-0.3,0.4-0.5,0.9-0.8,1.5c-0.2,0.6-0.4,1.2-0.6,1.8h3.4
		c0.7,0,1.4,0,2.2-0.1v1.4c-0.7-0.1-1.2-0.1-1.6-0.1c-0.1,1.7-0.4,3.4-0.7,4.9c-0.3,1.5-0.7,2.7-1.1,3.6c1.1,1.1,2.3,1.8,3.6,2.1
		c-0.4,0.4-0.7,0.9-1,1.5c-1.1-0.6-2.3-1.4-3.4-2.6c-1.1,1.1-2.3,2-3.9,2.8C274.3,119.5,274,119,273.5,118.5z M276.4,107.7
		c-0.2,0.6-0.5,1.2-0.7,1.7l0.7-0.2c0.2,1.2,0.4,2.2,0.7,3.2c0.3,0.9,0.7,1.8,1.2,2.7c0.3-0.6,0.5-1.6,0.8-2.9
		c0.3-1.3,0.4-2.8,0.5-4.5H276.4z"/>
	<path class="st0" d="M290.2,120.1c0.1-0.9,0.1-2.2,0.1-4v-7.2c-0.6,1.1-1,2-1.3,2.6c-0.3-0.4-0.6-0.7-1-1.1c0.5-0.6,1-1.6,1.7-3.1
		c0.7-1.5,1.2-3.2,1.7-5.2c0.4,0.2,0.9,0.4,1.7,0.7c-0.3,0.4-0.8,1.6-1.4,3.5v9.8c0,1.7,0,3,0.1,3.9H290.2z M294,117.7
		c-0.4-0.3-0.8-0.5-1.3-0.7c1-1.7,1.6-3.4,1.9-5.1c0.6,0.2,1.1,0.4,1.4,0.5c-0.3,0.6-0.6,1.3-0.9,2.3
		C294.9,115.5,294.5,116.6,294,117.7z M294.4,110c-0.4-0.3-0.9-0.4-1.4-0.5c1-1.4,1.7-2.7,2.1-4.1c0.5-1.3,0.7-2.3,0.8-2.9
		c0.6,0.2,1.1,0.4,1.8,0.5c-0.3,0.4-0.7,1.2-1.2,2.7h7c-0.2,0.5-0.4,1-0.7,1.8c-0.3,0.7-0.5,1.5-0.7,2.3c-0.5-0.2-0.9-0.3-1.4-0.3
		c0.4-1,0.7-1.8,0.9-2.5h-5.6C295.5,108.2,294.9,109.2,294.4,110z M296.1,120.1c0-0.4-0.3-1-0.6-1.8c1,0,1.6,0,1.8-0.1
		c0.2-0.1,0.3-0.3,0.3-0.8v-6.3c0-1.2,0-2-0.1-2.4h1.4c0,0.5-0.1,1.3-0.1,2.4v7.1c0,0.7-0.2,1.1-0.7,1.3
		C297.8,119.7,297.1,119.9,296.1,120.1z M300.1,112.2c0.5-0.3,0.9-0.5,1.2-0.8c0.1,0.4,0.5,1.1,1,2.3c0.5,1.2,1,2.2,1.3,2.9
		c-0.3,0.1-0.8,0.3-1.4,0.7C301.9,116.3,301.2,114.5,300.1,112.2z"/>
	<path class="st0" d="M312.6,102.5c0.6,0.2,1.2,0.3,1.9,0.5c-0.2,0.3-0.3,0.8-0.5,1.3c-0.1,0.6-0.3,1.1-0.3,1.6h3
		c0,0.9-0.1,2-0.1,3.3v6.7c0,0.8,0,1.8,0.1,2.8h-1.3v-1.6h-3.6v1.8h-1.3c0-1.3,0.1-2.2,0.1-2.8v-6.8c0-1.3,0-2.4-0.1-3.4h1.9
		c0-0.5,0.1-1,0.1-1.5C312.5,104,312.5,103.4,312.6,102.5z M311.7,107.4v3.4h3.6v-3.4H311.7z M311.7,112.2v3.6h3.6v-3.6H311.7z
		 M324.5,106.1c-0.1,1-0.2,1.9-0.2,2.8l-0.5,8.6c-0.1,0.9-0.6,1.5-1.2,1.8c-0.7,0.3-1.4,0.4-2.2,0.5c0-0.6-0.2-1.1-0.5-1.8
		c0.8,0.1,1.4,0,1.9,0c0.5-0.1,0.7-0.4,0.8-1l0.6-9.6h-3.6c-0.4,0.9-0.8,1.8-1.3,2.9c-0.4-0.3-0.8-0.6-1.2-0.8
		c0.3-0.5,0.6-1.1,0.9-1.9c0.3-0.8,0.6-1.7,0.9-2.6c0.3-0.9,0.4-1.7,0.5-2.3c0.6,0.3,1.2,0.5,1.7,0.7c-0.2,0.4-0.4,0.8-0.6,1.3
		c-0.2,0.4-0.3,0.9-0.5,1.4H324.5z M318.4,111.1c0.3-0.2,0.7-0.5,1.2-0.8c0.2,0.5,0.5,1,0.7,1.5c0.2,0.6,0.5,1.2,0.8,2.1
		c-0.4,0.2-0.8,0.4-1.2,0.7c-0.1-0.6-0.3-1.2-0.6-1.8C319,112.1,318.7,111.6,318.4,111.1z"/>
	<path class="st0" d="M331.9,120c-0.4-0.3-0.9-0.6-1.4-0.8c0.5-0.7,0.9-1.4,1.2-2.1c0.3-0.8,0.5-1.5,0.6-2.1
		c0.1-0.6,0.2-1.2,0.2-1.8c0-0.6,0.1-1.3,0.1-2v-5.6c0-1.1,0-1.9-0.1-2.4h11.1c1,0,1.7,0,2.1-0.1v1.4c-0.4-0.1-1.1-0.1-2.1-0.1h-9.6
		v6.6c0,1.4-0.1,2.6-0.2,3.4c-0.1,0.9-0.3,1.6-0.4,2.2c-0.2,0.6-0.4,1.2-0.6,1.8S332.2,119.5,331.9,120z M334.9,119.2
		c-0.3-0.4-0.7-0.7-1.1-1.1c0.5-0.4,1-0.8,1.5-1.5c0.5-0.6,0.9-1.3,1.2-2c0.6,0.5,1,0.8,1.4,1.1c-0.5,0.5-0.9,1-1.4,1.6
		C336,117.9,335.5,118.5,334.9,119.2z M338.8,104.7c0.5,0.2,1.1,0.3,1.7,0.5c-0.3,0.5-0.6,1.1-0.8,1.7h5c0,0.5-0.1,1.2-0.1,2.2v2.4
		c0,0.8,0,1.6,0.1,2.3h-3.8v4.7c0,0.8-0.2,1.2-0.6,1.3c-0.4,0.1-1,0.3-1.8,0.4c-0.1-0.6-0.3-1.2-0.5-1.8c0.7,0,1.1,0,1.2,0
		c0.1-0.1,0.2-0.3,0.2-0.7v-4h-3.9c0-0.6,0.1-1.4,0.1-2.2V109c0-0.8,0-1.5-0.1-2.1h3c0-0.3,0.1-0.6,0.1-1
		C338.7,105.5,338.7,105.1,338.8,104.7z M336.9,108v1.6h6.3V108H336.9z M336.9,110.9v1.6h6.3v-1.6H336.9z M342,115.8
		c0.4-0.4,0.7-0.8,1-1.1c0.7,0.7,1.3,1.2,1.7,1.7c0.4,0.5,0.8,0.9,1.2,1.3c-0.4,0.3-0.7,0.7-1.1,1.1c-0.5-0.7-0.9-1.2-1.4-1.8
		C342.9,116.6,342.5,116.1,342,115.8z"/>
	<path class="st0" d="M359.8,108.7c0,1.4-0.1,2.3-0.1,2.9c0,0.6,0,1.1-0.1,1.6c-0.1,0.5-0.3,0.8-0.7,1c-0.4,0.2-1.1,0.3-1.9,0.5
		c-0.1-0.5-0.3-1.1-0.5-1.7c1.1,0.1,1.7,0,1.8-0.2c0.1-0.2,0.2-1.1,0.2-2.7h-3.2v7.2c0,0.7,0.3,1.1,0.8,1.1h2.1
		c0.5,0.1,0.7-0.1,0.8-0.5c0.1-0.4,0.1-0.8,0.2-1.4c0.4,0.4,0.8,0.6,1.4,0.7c-0.3,1.2-0.6,1.9-0.9,2.1c-0.3,0.2-0.7,0.3-1.2,0.3
		h-3.1c-0.9,0-1.4-0.5-1.4-1.5v-6.6c0-0.8,0-1.6-0.1-2.4c-0.3,0.4-0.7,0.8-1,1.2c-0.4-0.5-0.8-0.8-1.2-1.1c0.5-0.4,1-0.9,1.4-1.3
		c0.4-0.5,0.9-1,1.3-1.6c0.4-0.6,0.8-1.2,1.1-1.8c0.3-0.6,0.6-1.3,0.9-2c0.4,0.3,0.9,0.6,1.5,0.9c-0.2,0.2-0.4,0.5-0.6,0.8
		c0.3,0.3,0.8,0.6,1.5,1c0.7,0.4,1.4,1,2.3,1.6c-0.4,0.3-0.8,0.7-1,1.2c-0.8-0.8-1.5-1.4-1.9-1.8c-0.5-0.4-0.9-0.8-1.4-1.1
		c-0.6,1.1-1.1,1.9-1.5,2.4s-0.8,1-1,1.3H359.8z M361.7,105.4h1.4c0,0.8-0.1,1.6-0.1,2.6v5.4c0,1,0,1.8,0.1,2.4h-1.4
		c0-0.8,0.1-1.6,0.1-2.4v-5.6C361.8,107,361.7,106.2,361.7,105.4z M365.1,103.1h1.4c0,0.7-0.1,1.5-0.1,2.4v12.3
		c0,0.9-0.2,1.4-0.6,1.6c-0.4,0.2-1,0.3-2,0.5c-0.1-0.6-0.3-1.2-0.6-1.7c0.8,0,1.4,0,1.6-0.1c0.2-0.1,0.3-0.3,0.3-0.8v-11.8
		C365.1,104.8,365.1,104,365.1,103.1z"/>
	<path class="st0" d="M382.1,117.6c1.3,0.1,2.1,0,2.5-0.2c0.4-0.2,0.6-0.5,0.7-1.1c0-0.6,0.1-1.3,0.1-2.1c0-0.8,0.1-2.8,0.3-6h-4.4
		c-0.1,1.7-0.3,3.1-0.6,4.1c-0.2,1-0.6,2-1,2.8c-0.4,0.9-0.9,1.7-1.6,2.4c-0.6,0.7-1.4,1.5-2.4,2.4c-0.3-0.4-0.8-0.9-1.5-1.4
		c1-0.6,1.8-1.2,2.4-1.8c0.7-0.6,1.2-1.4,1.7-2.2c0.4-0.8,0.8-1.7,1-2.8c0.2-1,0.4-2.3,0.5-3.6h-1.8c-1.1,0-2.2,0-3.1,0.1v-1.5
		c0.9,0.1,2,0.1,3.1,0.1h1.9c0-0.9,0-1.6,0-2.3c0-0.7,0-1.4-0.1-2.1c0.6,0.2,1.2,0.3,2,0.4c-0.3,0.4-0.4,1-0.4,1.8
		c0,0.8,0,1.6,0,2.3h6c-0.1,0.7-0.2,1.6-0.2,2.5c-0.1,1-0.1,2-0.1,3c0,1-0.1,2.3-0.2,3.8c-0.1,1.5-0.4,2.4-1.1,2.7
		c-0.6,0.3-1.5,0.6-2.8,0.8C382.8,119,382.5,118.3,382.1,117.6z"/>
</g>
</svg>
