<?xml version="1.0" encoding="utf-8"?>
<svg width="68" height="8" viewBox="0 0 68 8" fill="none" xmlns="http://www.w3.org/2000/svg">
	<path d="M68 4C68 6.20914 66.2091 8 64 8C61.7909 8 60 6.20914 60 4C60 1.79086 61.7909 0 64 0C66.2091 0 68 1.79086 68 4ZM61.6 4C61.6 5.32548 62.6745 6.4 64 6.4C65.3255 6.4 66.4 5.32548 66.4 4C66.4 2.67452 65.3255 1.6 64 1.6C62.6745 1.6 61.6 2.67452 61.6 4Z" fill="#666666"/>
	<path fill-rule="evenodd" clip-rule="evenodd" d="M60.5262 2.03108L2.60231e-07 4.01553L60.5262 6.00001C60.1914 5.41519 60 4.73771 60 4.01554C60 3.29337 60.1914 2.6159 60.5262 2.03108Z" fill="#666666"/>
</svg>
