<?xml version="1.0" encoding="utf-8"?>
<svg width="160" height="80" viewBox="0 0 160 80" fill="none" xmlns="http://www.w3.org/2000/svg">
<path fill-rule="evenodd" clip-rule="evenodd" d="M155.789 80.0004C155.789 80.0003 155.789 80.0003 155.789 80.0002C155.789 51.9532 140.554 27.4646 117.909 14.3582L120 10.7373C132.21 17.7899 142.21 27.8952 149.263 40.0004C156.316 52.1057 160 66.0004 160 80.0004H155.789Z" fill="#F7323F"/>
<path fill-rule="evenodd" clip-rule="evenodd" d="M42.0912 14.3582L40 10.7371C27.7895 17.7897 17.7895 27.7897 10.7368 40.0002C3.68421 52.2107 0 66.0002 0 80.0002L4.21053 80.0002C4.21053 51.9532 19.4454 27.4645 42.0912 14.3582Z" fill="#32A2F7"/>
<path fill-rule="evenodd" clip-rule="evenodd" d="M42.0912 14.3579C53.242 7.90435 66.1896 4.21053 80 4.21053C93.8103 4.21053 106.758 7.90436 117.909 14.3579L120 10.7368C107.789 3.68421 94 0 80 0C66 0 52.2105 3.68421 40 10.7368L42.0912 14.3579Z" fill="#F78732"/>
</svg>
