<?xml version="1.0" encoding="utf-8"?>
<!-- Generator: Adobe Illustrator 21.0.0, SVG Export Plug-In . SVG Version: 6.00 Build 0)  -->
<svg version="1.1" id="Layer_1" xmlns="http://www.w3.org/2000/svg" xmlns:xlink="http://www.w3.org/1999/xlink" x="0px" y="0px"
	 viewBox="0 0 30.5 42.1" style="enable-background:new 0 0 30.5 42.1;" xml:space="preserve">
<style type="text/css">
	.st0{fill-rule:evenodd;clip-rule:evenodd;fill:#FEFEFE;}
	.st1{fill-rule:evenodd;clip-rule:evenodd;}
</style>
<g>
	<path class="st0" d="M30.5,10c0-0.2-0.1-0.4-0.2-0.5l-8.1-9.3C22,0.1,21.7,0,21.5,0h-20C0.7-0.1,0,0.6,0,1.6v38.8
		c0,0.9,0.7,1.7,1.7,1.7h27.1c0.9,0,1.7-0.7,1.7-1.7V10C30.5,10.1,30.5,10,30.5,10L30.5,10z"/>
	<path class="st1" d="M30.5,10c0-0.2-0.1-0.4-0.2-0.5l-8.1-9.3C22.1,0,21.7,0,21.5,0h-20C0.7-0.1,0,0.6,0,1.6v38.8
		c0,0.9,0.7,1.7,1.7,1.7h27.1c0.9,0,1.7-0.7,1.7-1.7V10C30.5,10.1,30.5,10,30.5,10L30.5,10z M4.2,25.9h6.5v-2.5H4.2V25.9z M20,14.2
		h6.5v-2.5H20V14.2z M12.1,14.2h6.5v-2.5h-6.5V14.2z M4.2,14.2h6.5v-2.5H4.2V14.2z M20,18.1h6.5v-2.5H20V18.1z M12.1,18.1h6.5v-2.5
		h-6.5V18.1z M4.2,18.1h6.5v-2.5H4.2V18.1z M20,22h6.5v-2.5H20V22z M12.1,22h6.5v-2.5h-6.5V22z M4.2,22h6.5v-2.5H4.2V22z M20,25.9
		h6.5v-2.5H20V25.9z M12.1,25.9h6.5v-2.5h-6.5V25.9z M1.7,27.9V1.6h19.1V10c0,0.5,0.4,0.8,0.8,0.8h7.3v17.1H1.7z"/>
	<path class="st0" d="M10.4,39.7c-0.4,0.2-1.3,0.4-2.5,0.4c-3.4,0-5.1-2.1-5.1-4.9c0-3.3,2.4-5.1,5.3-5.1c1.1,0,2,0.2,2.4,0.4
		L10,32.2c-0.4-0.2-1.1-0.4-1.8-0.4c-1.7,0-3.1,1.1-3.1,3.2c0,1.9,1.2,3.2,3.1,3.2c0.7,0,1.4-0.1,1.8-0.3L10.4,39.7z M21.9,39.9
		l-3.1-9.7h2.4l1.2,4.1c0.3,1.2,0.6,2.3,0.9,3.5l0,0c0.2-1.2,0.5-2.3,0.9-3.4l1.2-4.1h2.3L24.4,40h-2.5V39.9z M11.9,37.7
		c0.6,0.3,1.5,0.6,2.4,0.6c1,0,1.5-0.4,1.5-1.1c0-0.6-0.5-1-1.6-1.4c-1.6-0.6-2.7-1.5-2.7-2.9c0-1.7,1.4-2.9,3.7-2.9
		c1.1,0,1.9,0.2,2.5,0.5l-0.5,1.8c-0.4-0.2-1.1-0.5-2-0.5c-1,0-1.4,0.4-1.4,0.9c0,0.6,0.5,0.9,1.8,1.4c1.7,0.6,2.5,1.5,2.5,2.9
		c0,1.6-1.2,3-3.9,3c-1.1,0-2.2-0.3-2.8-0.6L11.9,37.7z"/>
</g>
</svg>
