<?xml version="1.0" encoding="utf-8"?>
<!-- Generator: Adobe Illustrator 23.0.4, SVG Export Plug-In . SVG Version: 6.00 Build 0)  -->
<svg version="1.1" id="Layer_1" xmlns="http://www.w3.org/2000/svg" xmlns:xlink="http://www.w3.org/1999/xlink" x="0px" y="0px"
	 viewBox="23 23 54 54" xml:space="preserve">
<style type="text/css">
	.st0{fill:none;stroke:#000000;stroke-miterlimit:10;}
	.st1{fill-rule:evenodd;clip-rule:evenodd;fill:#010101;}
</style>
<circle class="st0" cx="50" cy="50" r="25"/>
<g>
	<path class="st1" d="M53.99,54.19l-2.88-1.61c-0.67-0.38-0.84-1.27-0.34-1.86l5.77-6.85c0.87-1.04,2.54-0.1,2.1,1.19l-2.88,8.46
		C55.5,54.24,54.66,54.57,53.99,54.19z M48.6,54.71l0.62-1.82l0.72,0.4L48.6,54.71z M49.74,44.86l-4.56,3.45
		c-0.39,0.29-0.91,0.33-1.34,0.09l-1.47-0.82c-0.89-0.49-0.82-1.79,0.11-2.2l6.03-2.63C49.84,42.18,50.9,43.99,49.74,44.86z
		 M48.44,51.65c0,0-0.01,0.01-0.01,0.01c-0.01,0.01-0.02,0.02-0.03,0.03c0,0.01-0.01,0.01-0.01,0.02c-0.01,0.01-0.01,0.02-0.02,0.03
		c0,0.01-0.01,0.01-0.01,0.02c-0.01,0.01-0.01,0.02-0.01,0.03c0,0.01-0.01,0.02-0.01,0.03c0,0,0,0.01,0,0.01v0
		c-0.38,1.11-1.95,1.11-2.32,0l-0.44-1.29c-0.17-0.5,0-1.06,0.42-1.37l3.76-2.84c1.17-0.88,2.62,0.65,1.68,1.77L48.44,51.65z
		 M62.88,36.24c0-0.01,0-0.02,0.01-0.03c0-0.01,0-0.02,0-0.02c0-0.01,0-0.02,0-0.03c0-0.01,0-0.02,0-0.02c0-0.01,0-0.02,0-0.03
		c0-0.01,0-0.02,0-0.02c0-0.01,0-0.02,0-0.03c0-0.01,0-0.02,0-0.02c0-0.01,0-0.02,0-0.03c0-0.01,0-0.02,0-0.03
		c0-0.01,0-0.02-0.01-0.02c0-0.01,0-0.02-0.01-0.03c0-0.01,0-0.02-0.01-0.02c0-0.01-0.01-0.02-0.01-0.03c0-0.01-0.01-0.02-0.01-0.03
		c0-0.01-0.01-0.01-0.01-0.02c-0.01-0.01-0.01-0.02-0.02-0.04c0,0,0-0.01,0-0.01c0,0,0,0,0,0c-0.01-0.02-0.02-0.03-0.03-0.04
		c0,0-0.01-0.01-0.01-0.01c-0.01-0.01-0.02-0.02-0.02-0.03c-0.01-0.01-0.01-0.01-0.02-0.02c-0.01-0.01-0.01-0.01-0.02-0.02
		c-0.01-0.01-0.01-0.01-0.02-0.02c-0.01-0.01-0.01-0.01-0.02-0.02c-0.01-0.01-0.02-0.01-0.02-0.02c-0.01,0-0.01-0.01-0.02-0.01
		c-0.01-0.01-0.02-0.01-0.03-0.02c0,0-0.01-0.01-0.01-0.01c0,0,0,0,0,0c-0.01,0-0.02-0.01-0.03-0.01c-0.01,0-0.02-0.01-0.02-0.01
		c-0.01,0-0.01-0.01-0.02-0.01c-0.01,0-0.02-0.01-0.03-0.01c-0.01,0-0.01,0-0.02-0.01c-0.01,0-0.02-0.01-0.03-0.01
		c-0.01,0-0.01,0-0.02,0c-0.01,0-0.02,0-0.03-0.01c-0.01,0-0.01,0-0.02,0c-0.01,0-0.02,0-0.03,0c-0.01,0-0.01,0-0.02,0
		c-0.01,0-0.02,0-0.03,0c-0.01,0-0.02,0-0.02,0c-0.01,0-0.02,0-0.03,0c-0.01,0-0.02,0-0.02,0c-0.01,0-0.02,0-0.03,0.01
		c-0.01,0-0.01,0-0.02,0c-0.01,0-0.02,0.01-0.03,0.01c-0.01,0-0.01,0-0.02,0.01c-0.01,0-0.02,0.01-0.03,0.01c0,0-0.01,0-0.01,0
		L38.66,45.78c-0.2,0.09-0.34,0.29-0.35,0.51c-0.01,0.22,0.11,0.43,0.3,0.54l5.09,2.84c0.26,0.15,0.47,0.39,0.56,0.68l2.36,6.91
		c0,0,0,0,0,0l0,0c0.01,0.02,0.01,0.03,0.02,0.04c0,0.01,0.01,0.01,0.01,0.02c0,0.01,0.01,0.02,0.01,0.03
		c0,0.01,0.01,0.01,0.01,0.02c0.01,0.01,0.01,0.02,0.02,0.03c0,0.01,0.01,0.01,0.01,0.02c0.01,0.01,0.02,0.02,0.03,0.03
		c0,0,0,0.01,0.01,0.01c0.01,0.01,0.02,0.03,0.04,0.04c0,0,0,0,0,0c0,0,0.01,0,0.01,0.01c0.01,0.01,0.02,0.02,0.03,0.02
		c0.01,0,0.01,0.01,0.02,0.01c0.01,0.01,0.02,0.01,0.03,0.02c0.01,0,0.01,0.01,0.02,0.01c0.01,0.01,0.02,0.01,0.03,0.02
		c0.01,0.01,0.02,0.01,0.03,0.01c0.01,0,0.02,0.01,0.03,0.01c0.01,0,0.02,0.01,0.02,0.01c0.01,0,0.02,0.01,0.03,0.01
		c0.01,0,0.01,0,0.02,0.01c0.01,0,0.02,0,0.03,0.01c0.01,0,0.01,0,0.02,0c0.01,0,0.02,0,0.03,0c0.01,0,0.01,0,0.02,0
		c0.02,0,0.03,0,0.05,0c0,0,0,0,0,0h0h0c0.02,0,0.04,0,0.05,0c0.01,0,0.01,0,0.02,0c0.01,0,0.03,0,0.04-0.01c0.01,0,0.01,0,0.02,0
		c0.01,0,0.02-0.01,0.04-0.01c0.01,0,0.01,0,0.02,0c0.02-0.01,0.03-0.01,0.05-0.02c0.01,0,0.01,0,0.02-0.01
		c0.01,0,0.02-0.01,0.03-0.02c0.01,0,0.01-0.01,0.02-0.01c0.01-0.01,0.02-0.01,0.03-0.02c0.01,0,0.01-0.01,0.02-0.01
		c0.01-0.01,0.03-0.02,0.04-0.03c0,0,0.01-0.01,0.01-0.01c0.01-0.01,0.02-0.02,0.03-0.03c0,0,0,0,0.01-0.01l2.75-2.9
		c0.39-0.41,1-0.5,1.49-0.23l3.47,1.93c0.09,0.05,0.19,0.07,0.29,0.07c0.07,0,0.14-0.01,0.21-0.04c0.16-0.06,0.29-0.19,0.35-0.36
		l6.71-19.67c0,0,0-0.01,0-0.01C62.88,36.26,62.88,36.25,62.88,36.24L62.88,36.24z M45.4,58.75c-0.24-0.22-0.62-0.2-0.83,0.04
		l-5.15,5.67c-0.22,0.24-0.2,0.61,0.04,0.83c0.11,0.1,0.25,0.15,0.4,0.15c0.16,0,0.32-0.07,0.44-0.19l5.15-5.67
		C45.66,59.34,45.65,58.97,45.4,58.75 M43.55,55.34c-0.24-0.22-0.61-0.22-0.83,0.02l-4.84,5.01c-0.23,0.23-0.22,0.61,0.02,0.83
		c0.11,0.11,0.26,0.16,0.41,0.16c0.15,0,0.31-0.06,0.43-0.18l4.84-5.01C43.8,55.94,43.79,55.57,43.55,55.34 M50.18,58.51l-4.3,4.48
		c-0.23,0.23-0.22,0.61,0.02,0.83c0.11,0.11,0.26,0.16,0.41,0.16c0.16,0,0.31-0.06,0.43-0.18l4.3-4.48
		c0.23-0.23,0.22-0.61-0.02-0.83C50.78,58.27,50.4,58.28,50.18,58.51"/>
</g>
</svg>
