<?xml version="1.0" encoding="utf-8"?>
<!-- Generator: Adobe Illustrator 23.0.4, SVG Export Plug-In . SVG Version: 6.00 Build 0)  -->
<svg version="1.1" id="Layer_1" xmlns="http://www.w3.org/2000/svg" xmlns:xlink="http://www.w3.org/1999/xlink" x="0px" y="0px"
	 viewBox="23 23 54 54" xml:space="preserve">
<style type="text/css">
	.st0{fill:none;stroke:#000000;stroke-miterlimit:10;}
	.st1{fill:#010101;}
</style>
<circle class="st0" cx="50" cy="50" r="25"/>
<g>
	<path d="M59.5,51.79c-3.42,0-6.17,2.75-6.17,6.17s2.75,6.17,6.17,6.17s6.17-2.79,6.17-6.17C65.67,54.58,62.92,51.79,59.5,51.79z
		 M62.85,58.79h-2.52v2.52h-1.66v-2.52h-2.52v-1.66h2.52v-2.52h1.66v2.52h2.52V58.79z"/>
	<path class="st1" d="M48.21,44.13c-0.46,0-0.83-0.37-0.83-0.83s0.37-0.83,0.83-0.83h0.53h2.49h1.49h2.62h0.4
		c0.46,0,0.83,0.37,0.83,0.83s-0.37,0.83-0.83,0.83h-0.4h-0.8h-5.18h-0.63H48.21z M41.18,49.93c0-0.46,0.37-0.83,0.83-0.83h3.42
		h1.76h3.39h1.46h3.68c0.46,0,0.83,0.37,0.83,0.83s-0.37,0.83-0.83,0.83h-5.08l0,0h-3.48l0,0h-5.14
		C41.58,50.76,41.18,50.4,41.18,49.93z M42.01,45.79h6.21l0,0h1.29l0,0h6.21c0.46,0,0.83,0.37,0.83,0.83s-0.37,0.83-0.83,0.83h-3.65
		h-1.83h-2.69h-2.09h-3.45c-0.46,0-0.83-0.37-0.83-0.83S41.58,45.79,42.01,45.79z M52.06,54.08h-2.26h-1.86h-2.52h-3.42
		c-0.46,0-0.83-0.37-0.83-0.83l0,0c0-0.46,0.37-0.83,0.83-0.83h5.38l0,0h2.99l0,0h3.25c-0.46,0.5-0.86,1.06-1.19,1.66H52.06z
		 M41.18,56.57c0-0.46,0.37-0.83,0.83-0.83h6.8h0.1h2.82c-0.13,0.53-0.23,1.1-0.27,1.66h-1h-3.19h-5.28
		C41.58,57.4,41.18,57.04,41.18,56.57z M41.11,59.89c0-0.46,0.37-0.83,0.83-0.83h9.59c0.1,0.56,0.23,1.13,0.43,1.66H41.94
		C41.48,60.72,41.11,60.35,41.11,59.89z M60.26,39.21v1.89v0.56V50c-0.27-0.07-0.56-0.07-0.86-0.07c-0.27,0-0.53,0-0.8,0.03v-8.86
		v-1.89c0-1.03-0.83-1.86-1.86-1.86H45.73v2.69c0,1.92-1.59,3.52-3.52,3.52h-2.95v17.06c0,1.03,0.83,1.86,1.86,1.86h11.81
		c0.46,0.63,1,1.19,1.59,1.66H41.15c-1.96,0-3.52-1.56-3.52-3.52V43.03c0-0.2,0.03-0.43,0.13-0.63c0.1-0.2,0.2-0.37,0.37-0.53
		l5.97-5.71c0.13-0.13,0.33-0.27,0.5-0.33c0.2-0.07,0.4-0.1,0.6-0.1h11.52C58.7,35.7,60.26,37.29,60.26,39.21z"/>
</g>
</svg>
