<?xml version="1.0" encoding="utf-8"?>
<!-- Generator: Adobe Illustrator 24.0.3, SVG Export Plug-In . SVG Version: 6.00 Build 0)  -->
<svg version="1.1" id="Layer_1" xmlns="http://www.w3.org/2000/svg" xmlns:xlink="http://www.w3.org/1999/xlink" x="0px" y="0px"
	 viewBox="0 0 49 49" style="enable-background:new 0 0 49 49;" xml:space="preserve">
<style type="text/css">
	.st0{fill:none;stroke:#000000;stroke-width:0.5;stroke-miterlimit:10;}
	.st1{fill:#010101;}
</style>
<g>
	<circle class="st0" cx="24.5" cy="24.5" r="24.2"/>
	<path class="st1" d="M31.6,10.3H20c-0.2,0-0.4,0-0.6,0.1c-0.2,0.1-0.4,0.2-0.5,0.3l-6,5.7c-0.2,0.2-0.3,0.3-0.4,0.5
		s-0.1,0.4-0.1,0.6v17.6c0,2,1.6,3.5,3.5,3.5h2.1h11.2h2.1c2,0,3.5-1.6,3.5-3.5V24.5c0,0,0.1,0,0.1,0v-8.3v-0.6v-1.9
		C35.1,11.8,33.5,10.3,31.6,10.3z M33.4,35.2c0,1-0.8,1.9-1.9,1.9h-3.8h-8H16c-1,0-1.9-0.8-1.9-1.9V18.1h3c1.9,0,3.5-1.6,3.5-3.5
		v-2.7h11c1,0,1.9,0.8,1.9,1.9v1.9v2.4l0,0.1V35.2z"/>
	<g>
		<g>
			<path class="st1" d="M20.7,26.6c-0.8-1-1.7-1.9-2.5-2.9c-0.1-0.1-0.2-0.3-0.4-0.4c0,0.4,0,0.8,0,1.2c0.8-1,1.7-1.9,2.5-2.9
				c0.1-0.1,0.2-0.3,0.4-0.4c0.1-0.2,0.2-0.4,0.2-0.6c0-0.2-0.1-0.5-0.2-0.6c-0.3-0.3-0.9-0.4-1.2,0c-0.8,1-1.7,1.9-2.5,2.9
				c-0.1,0.1-0.2,0.3-0.4,0.4c-0.3,0.4-0.3,0.8,0,1.2c0.8,1,1.7,1.9,2.5,2.9c0.1,0.1,0.2,0.3,0.4,0.4c0.3,0.3,0.9,0.3,1.2,0
				C21.1,27.4,21.1,26.9,20.7,26.6L20.7,26.6z"/>
		</g>
	</g>
	<g>
		<g>
			<path class="st1" d="M28,27.8c0.8-1,1.7-1.9,2.5-2.9c0.1-0.1,0.2-0.3,0.4-0.4c0.3-0.4,0.3-0.8,0-1.2c-0.8-1-1.7-1.9-2.5-2.9
				c-0.1-0.1-0.2-0.3-0.4-0.4c-0.3-0.3-0.9-0.3-1.2,0c-0.3,0.4-0.3,0.8,0,1.2c0.8,1,1.7,1.9,2.5,2.9c0.1,0.1,0.2,0.3,0.4,0.4
				c0-0.4,0-0.8,0-1.2c-0.8,1-1.7,1.9-2.5,2.9c-0.1,0.1-0.2,0.3-0.4,0.4c-0.1,0.2-0.2,0.4-0.2,0.6c0,0.2,0.1,0.5,0.2,0.6
				C27.1,28.1,27.7,28.1,28,27.8L28,27.8z"/>
		</g>
	</g>
	<g>
		<g>
			<path class="st1" d="M24.3,19.6c-0.3,0.9-0.6,1.8-0.9,2.7c-0.5,1.4-0.9,2.8-1.4,4.3c-0.1,0.3-0.2,0.7-0.3,1
				c-0.1,0.4,0.2,0.9,0.6,1c0.5,0.1,0.9-0.1,1-0.6c0.3-0.9,0.6-1.8,0.9-2.7c0.5-1.4,0.9-2.8,1.4-4.3c0.1-0.3,0.2-0.7,0.3-1
				c0.1-0.4-0.2-0.9-0.6-1C24.9,19,24.4,19.2,24.3,19.6L24.3,19.6z"/>
		</g>
	</g>
</g>
</svg>
