<?xml version="1.0" encoding="utf-8"?>
<!-- Generator: Adobe Illustrator 23.0.4, SVG Export Plug-In . SVG Version: 6.00 Build 0)  -->
<svg version="1.1" id="Layer_1" xmlns="http://www.w3.org/2000/svg" xmlns:xlink="http://www.w3.org/1999/xlink" x="0px" y="0px"
	 viewBox="23 23 54 54" xml:space="preserve">
<style type="text/css">
	.st0{fill:none;stroke:#000000;stroke-miterlimit:10;}
	.st1{fill:#010101;}
</style>
<circle class="st0" cx="50" cy="50" r="25"/>
<g>
	<path class="st1" d="M63.92,52.61v-5.46l-2.87-0.37c-0.23-0.78-0.54-1.53-0.93-2.23l1.77-2.3l-3.86-3.86l-2.28,1.77
		c-0.7-0.39-1.45-0.7-2.25-0.93l-0.37-2.87h-5.46l-0.37,2.87c-0.79,0.23-1.54,0.54-2.24,0.93l-2.29-1.77l-3.86,3.86l1.77,2.29
		c-0.39,0.7-0.7,1.45-0.93,2.24l-2.86,0.37v5.46l2.86,0.37c0.24,0.79,0.55,1.54,0.93,2.24l-1.77,2.29l3.86,3.87l2.29-1.77
		c0.7,0.39,1.44,0.7,2.24,0.93l0.37,2.87h5.46l0.37-2.87c0.79-0.23,1.54-0.54,2.25-0.92l2.28,1.77l3.86-3.87l-1.77-2.29
		c0.39-0.7,0.7-1.45,0.93-2.24L63.92,52.61z M52.32,57.75c-0.61,0.15-1.26,0.23-1.92,0.23c-0.65,0-1.28-0.08-1.89-0.22
		c-3.57-0.85-6.21-4.06-6.21-7.88c0-4.47,3.63-8.09,8.1-8.09c4.47,0,8.09,3.63,8.09,8.09C58.49,53.69,55.86,56.88,52.32,57.75z"/>
	<path class="st1" d="M50.59,49.6c1.29,0,2.33-1.04,2.33-2.33c0-1.28-1.04-2.32-2.33-2.32c-1.28,0-2.32,1.04-2.32,2.32
		C48.26,48.56,49.3,49.6,50.59,49.6z"/>
	<path class="st1" d="M50.39,50.38c-2.44,0-4.44,1.98-4.44,4.44h8.88C54.84,52.36,52.85,50.38,50.39,50.38z"/>
</g>
</svg>
