<?xml version="1.0" encoding="utf-8"?>
<!-- Generator: Adobe Illustrator 23.0.4, SVG Export Plug-In . SVG Version: 6.00 Build 0)  -->
<svg version="1.1" id="Layer_1" xmlns="http://www.w3.org/2000/svg" xmlns:xlink="http://www.w3.org/1999/xlink" x="0px" y="0px"
	 viewBox="23 23 54 54" xml:space="preserve">
<style type="text/css">
	.st0{fill:none;stroke:#000000;stroke-miterlimit:10;}
	.st1{fill:#010101;}
</style>
<circle class="st0" cx="50" cy="50" r="25"/>
<path class="st1" d="M52.71,44.46c0,3.15-2.56,5.71-5.71,5.71c-3.15,0-5.71-2.56-5.71-5.71c0-3.15,2.56-5.71,5.71-5.71
	C50.15,38.76,52.71,41.32,52.71,44.46 M57.76,57.91c-0.81-3.25-2.76-5.97-5.34-7.58c-1.42,1.31-3.33,2.12-5.41,2.12
	c-2.09,0-3.99-0.8-5.41-2.12c-2.58,1.61-4.53,4.32-5.34,7.58c-0.42,1.7,0.71,3.39,2.25,3.39h17C57.05,61.3,58.18,59.61,57.76,57.91
	 M65.57,45.79h-3.7c-0.09,0-0.14-0.05-0.14-0.14v-3.7c0-0.09-0.03-0.17-0.1-0.24c-0.07-0.06-0.14-0.1-0.24-0.1h-1.79
	c-0.09,0-0.17,0.03-0.24,0.1c-0.07,0.07-0.1,0.15-0.1,0.24v3.7c0,0.09-0.05,0.14-0.14,0.14h-3.7c-0.09,0-0.17,0.03-0.24,0.1
	c-0.07,0.07-0.1,0.14-0.1,0.24v1.79c0,0.09,0.03,0.17,0.1,0.24c0.06,0.07,0.14,0.1,0.24,0.1h3.7c0.09,0,0.14,0.05,0.14,0.14v3.7
	c0,0.09,0.03,0.17,0.1,0.24s0.14,0.1,0.24,0.1h1.79c0.09,0,0.17-0.03,0.24-0.1s0.1-0.14,0.1-0.24v-3.7c0-0.09,0.05-0.14,0.14-0.14
	h3.7c0.09,0,0.17-0.03,0.24-0.1c0.07-0.06,0.1-0.14,0.1-0.24v-1.79c0-0.09-0.03-0.17-0.1-0.24S65.67,45.79,65.57,45.79z"/>
</svg>
