<?xml version="1.0" encoding="utf-8"?>
<!-- Generator: Adobe Illustrator 23.0.4, SVG Export Plug-In . SVG Version: 6.00 Build 0)  -->
<svg version="1.1" id="Layer_1" xmlns="http://www.w3.org/2000/svg" xmlns:xlink="http://www.w3.org/1999/xlink" x="0px" y="0px"
	 viewBox="23 23 54 54" xml:space="preserve">
<style type="text/css">
	.st0{fill:none;stroke:#000000;stroke-miterlimit:10;}
</style>
<g>
	<path d="M60.99,47.45l-2.68-0.97l1.21-2.55c0.14-0.3,0.08-0.66-0.16-0.89l-2.07-2.07c-0.23-0.24-0.59-0.3-0.89-0.16l-2.55,1.21
		l-0.97-2.68c-0.11-0.31-0.4-0.52-0.73-0.52h-2.94c-0.33,0-0.62,0.21-0.73,0.52l-0.97,2.68l-2.55-1.21
		c-0.3-0.14-0.66-0.08-0.89,0.16l-2.07,2.07c-0.24,0.23-0.3,0.59-0.16,0.89l1.21,2.55l-2.68,0.97c-0.31,0.11-0.52,0.4-0.52,0.73
		v2.94c0,0.33,0.21,0.62,0.52,0.73l2.65,0.94l-1.21,2.55c-0.14,0.3-0.08,0.66,0.16,0.89l2.07,2.07c0.23,0.24,0.59,0.3,0.89,0.16
		l2.55-1.21l0.94,2.65c0.11,0.31,0.4,0.52,0.73,0.52h2.99c0.33,0,0.62-0.21,0.73-0.52l0.94-2.65l2.55,1.21
		c0.3,0.14,0.66,0.08,0.89-0.16l2.07-2.07c0.24-0.23,0.3-0.59,0.16-0.89l-1.21-2.55l2.65-0.94c0.31-0.11,0.52-0.4,0.52-0.73v-2.94
		C61.47,47.87,61.28,47.58,60.99,47.45z M50.68,53.54c-2.15,0-3.88-1.74-3.88-3.88c0-2.15,1.74-3.88,3.88-3.88
		c2.15,0,3.88,1.74,3.88,3.88C54.55,51.8,52.82,53.53,50.68,53.54z"/>
</g>
<circle class="st0" cx="50" cy="50" r="25"/>
</svg>
