<?xml version="1.0" encoding="utf-8"?>
<svg viewBox="0 0 40 40" fill="none" xmlns="http://www.w3.org/2000/svg">
	<path fill-rule="evenodd" clip-rule="evenodd" d="M7 0C5.89543 0 5 0.895431 5 2V38C5 39.1046 5.89543 40 7 40H33C34.1046 40 35 39.1046 35 38V12L29 6L23 0H7Z" fill="black"/>
	<path fill-rule="evenodd" clip-rule="evenodd" d="M22.5 2H7V28H33V12.5H24.5C23.3954 12.5 22.5 11.6046 22.5 10.5V2Z" fill="white"/>
	<path d="M14.6623 38.096C13.9823 38.096 13.4343 37.892 13.0183 37.484C12.6103 37.068 12.4063 36.52 12.4063 35.84V31.748C12.4063 31.06 12.6103 30.516 13.0183 30.116C13.4343 29.708 13.9823 29.504 14.6623 29.504C15.3503 29.504 15.9023 29.708 16.3183 30.116C16.7343 30.516 16.9423 31.06 16.9423 31.748V31.892C16.9423 31.932 16.9263 31.968 16.8943 32C16.8703 32.032 16.8383 32.048 16.7983 32.048L15.6823 32.096C15.5863 32.096 15.5383 32.048 15.5383 31.952V31.652C15.5383 31.372 15.4583 31.144 15.2983 30.968C15.1383 30.792 14.9263 30.704 14.6623 30.704C14.4063 30.704 14.1983 30.792 14.0383 30.968C13.8783 31.144 13.7983 31.372 13.7983 31.652V35.948C13.7983 36.228 13.8783 36.456 14.0383 36.632C14.1983 36.808 14.4063 36.896 14.6623 36.896C14.9263 36.896 15.1383 36.808 15.2983 36.632C15.4583 36.456 15.5383 36.228 15.5383 35.948V35.648C15.5383 35.608 15.5503 35.576 15.5743 35.552C15.6063 35.52 15.6423 35.504 15.6823 35.504L16.7983 35.552C16.8383 35.552 16.8703 35.568 16.8943 35.6C16.9263 35.624 16.9423 35.656 16.9423 35.696V35.84C16.9423 36.52 16.7343 37.068 16.3183 37.484C15.9023 37.892 15.3503 38.096 14.6623 38.096ZM20.0147 38.096C19.3507 38.096 18.8147 37.896 18.4067 37.496C17.9987 37.096 17.7947 36.572 17.7947 35.924V35.612C17.7947 35.572 17.8067 35.54 17.8307 35.516C17.8627 35.484 17.8987 35.468 17.9387 35.468H19.0307C19.0707 35.468 19.1027 35.484 19.1267 35.516C19.1587 35.54 19.1747 35.572 19.1747 35.612V35.852C19.1747 36.164 19.2507 36.416 19.4027 36.608C19.5627 36.8 19.7667 36.896 20.0147 36.896C20.2627 36.896 20.4667 36.808 20.6267 36.632C20.7867 36.448 20.8667 36.208 20.8667 35.912C20.8667 35.704 20.8227 35.524 20.7347 35.372C20.6467 35.22 20.5227 35.076 20.3627 34.94C20.2027 34.804 19.9467 34.608 19.5947 34.352C19.1947 34.064 18.8707 33.808 18.6227 33.584C18.3827 33.36 18.1787 33.092 18.0107 32.78C17.8507 32.46 17.7707 32.092 17.7707 31.676C17.7707 31.012 17.9707 30.484 18.3707 30.092C18.7707 29.7 19.2987 29.504 19.9547 29.504C20.6187 29.504 21.1547 29.712 21.5627 30.128C21.9707 30.536 22.1747 31.08 22.1747 31.76V32.048C22.1747 32.088 22.1587 32.124 22.1267 32.156C22.1027 32.18 22.0707 32.192 22.0307 32.192H20.9507C20.9107 32.192 20.8747 32.18 20.8427 32.156C20.8187 32.124 20.8067 32.088 20.8067 32.048V31.736C20.8067 31.424 20.7267 31.176 20.5667 30.992C20.4147 30.8 20.2107 30.704 19.9547 30.704C19.7147 30.704 19.5187 30.792 19.3667 30.968C19.2147 31.136 19.1387 31.372 19.1387 31.676C19.1387 31.964 19.2187 32.208 19.3787 32.408C19.5467 32.608 19.8707 32.884 20.3507 33.236C20.8387 33.596 21.2067 33.892 21.4547 34.124C21.7027 34.348 21.8947 34.596 22.0307 34.868C22.1667 35.14 22.2347 35.464 22.2347 35.84C22.2347 36.52 22.0307 37.068 21.6227 37.484C21.2147 37.892 20.6787 38.096 20.0147 38.096ZM24.6572 38C24.5692 38 24.5172 37.956 24.5012 37.868L22.7852 29.756L22.7732 29.708C22.7732 29.636 22.8172 29.6 22.9052 29.6H24.1172C24.2132 29.6 24.2652 29.644 24.2732 29.732L25.2692 35.504C25.2772 35.528 25.2892 35.54 25.3052 35.54C25.3212 35.54 25.3332 35.528 25.3412 35.504L26.3132 29.732C26.3212 29.644 26.3732 29.6 26.4692 29.6H27.6452C27.7492 29.6 27.7892 29.652 27.7652 29.756L26.0372 37.868C26.0212 37.956 25.9692 38 25.8812 38H24.6572Z" fill="white"/>
	<rect x="9" y="17" width="6" height="2" fill="black"/>
	<rect x="9" y="14" width="6" height="2" fill="black"/>
	<rect x="9" y="20" width="6" height="2" fill="black"/>
	<rect x="9" y="23" width="6" height="2" fill="black"/>
	<rect x="17" y="17" width="6" height="2" fill="black"/>
	<rect x="17" y="14" width="6" height="2" fill="black"/>
	<rect x="17" y="20" width="6" height="2" fill="black"/>
	<rect x="17" y="23" width="6" height="2" fill="black"/>
	<rect x="25" y="17" width="6" height="2" fill="black"/>
	<rect x="25" y="14" width="6" height="2" fill="black"/>
	<rect x="25" y="20" width="6" height="2" fill="black"/>
	<rect x="25" y="23" width="6" height="2" fill="black"/>
</svg>