<?xml version="1.0" encoding="utf-8"?>
<svg viewBox="0 0 40 40" fill="none" xmlns="http://www.w3.org/2000/svg">
	<path fill-rule="evenodd" clip-rule="evenodd" d="M7 0C5.89543 0 5 0.895431 5 2V38C5 39.1046 5.89543 40 7 40H33C34.1046 40 35 39.1046 35 38V12L29 6L23 0H7Z" fill="black"/>
	<path fill-rule="evenodd" clip-rule="evenodd" d="M22.5 2H7V28H33V12.5H24.5C23.3954 12.5 22.5 11.6046 22.5 10.5V2Z" fill="white"/>
	<path d="M27.5918 16.8888C27.5918 16.8888 26.5315 16.7988 24.9411 16.7988C24.4109 16.7988 23.9691 16.7988 23.439 16.7988C20.3464 14.4584 17.784 12.028 16.3703 10.6777C16.3703 10.4977 16.3703 10.4077 16.4587 10.3177C16.6354 8.33733 16.4587 7.0771 15.8402 6.44699C15.4867 5.99691 14.9566 5.9069 14.3381 6.08693C13.9846 6.17695 13.2778 6.537 13.1011 7.25712C12.836 8.06726 13.2778 9.05744 14.2497 10.1376C14.2497 10.1376 14.6031 10.4977 15.2217 11.1278C14.8682 13.0181 13.8079 17.1588 13.2778 19.1392C12.1291 19.7693 11.1572 20.5794 10.362 21.4796L10.2736 21.5696V21.6596C10.1852 21.8396 9.8318 22.7398 10.0969 23.3699C10.1852 23.73 10.4503 23.91 10.8037 24H10.8921C10.8921 24 10.9805 24 11.0688 24C11.6873 24 13.1894 23.64 13.9846 20.6694L14.1614 19.8593C16.9888 18.5091 20.5232 18.059 22.9972 17.879C24.3226 18.8691 25.6479 19.7693 26.8849 20.5794C26.9733 20.5794 27.5035 20.8495 28.122 20.8495C29.0056 20.8495 29.7124 20.3094 29.9775 19.2292V19.1392C30.0658 18.5991 29.8891 18.059 29.5357 17.6089C29.0939 16.9788 27.7685 16.8888 27.5918 16.8888ZM11.1572 22.9198C11.0688 22.7398 11.1572 22.3797 11.2455 22.1097C11.6873 21.5696 12.2175 21.1195 12.9243 20.6694C12.3058 22.7398 11.4222 22.9198 11.1572 22.9198ZM15.1333 9.32749C14.1614 8.24731 14.1614 7.70722 14.2497 7.52719C14.3381 7.25714 14.6915 7.07711 14.6915 7.07711C14.8682 6.98709 14.9566 7.07711 15.1333 7.16713C15.3984 7.43718 15.5751 8.2473 15.4867 9.68755C15.2217 9.50752 15.1333 9.32749 15.1333 9.32749ZM14.6032 18.5091C15.1333 16.5287 15.7518 13.7382 16.1936 11.9379C17.4306 13.1982 19.4628 14.9985 21.7602 16.7988C19.6396 17.0688 16.9888 17.5189 14.6032 18.5091ZM29.0939 19.1392C28.9172 19.7693 28.5638 19.8593 28.2987 19.8593C27.9452 19.8593 27.5918 19.6793 27.5918 19.6793C26.7082 19.1392 25.8246 18.5091 24.9411 17.879C26.4432 17.879 27.5034 17.969 27.5034 17.969C27.7685 17.969 28.5638 18.059 28.9172 18.5091C29.0939 18.6891 29.1823 18.8691 29.0939 19.1392Z" fill="black"/>
	<path d="M14.9969 29.588C15.4209 29.588 15.7929 29.692 16.1129 29.9C16.4409 30.108 16.6929 30.4 16.8689 30.776C17.0529 31.152 17.1449 31.58 17.1449 32.06C17.1449 32.78 16.9529 33.36 16.5689 33.8C16.1929 34.24 15.6929 34.46 15.0689 34.46H14.0489C14.0089 34.46 13.9889 34.48 13.9889 34.52V37.856C13.9889 37.896 13.9729 37.932 13.9409 37.964C13.9169 37.988 13.8849 38 13.8449 38H12.7409C12.7009 38 12.6649 37.988 12.6329 37.964C12.6089 37.932 12.5969 37.896 12.5969 37.856V29.732C12.5969 29.692 12.6089 29.66 12.6329 29.636C12.6649 29.604 12.7009 29.588 12.7409 29.588H14.9969ZM14.7689 33.368C15.0649 33.368 15.3009 33.256 15.4769 33.032C15.6609 32.8 15.7529 32.488 15.7529 32.096C15.7529 31.696 15.6609 31.38 15.4769 31.148C15.3009 30.908 15.0649 30.788 14.7689 30.788H14.0489C14.0089 30.788 13.9889 30.808 13.9889 30.848V33.308C13.9889 33.348 14.0089 33.368 14.0489 33.368H14.7689ZM18.2373 38C18.1973 38 18.1613 37.988 18.1293 37.964C18.1053 37.932 18.0933 37.896 18.0933 37.856V29.744C18.0933 29.704 18.1053 29.672 18.1293 29.648C18.1613 29.616 18.1973 29.6 18.2373 29.6H20.2893C20.9773 29.6 21.5253 29.808 21.9333 30.224C22.3493 30.64 22.5573 31.196 22.5573 31.892V35.708C22.5573 36.404 22.3493 36.96 21.9333 37.376C21.5253 37.792 20.9773 38 20.2893 38H18.2373ZM19.4853 36.74C19.4853 36.78 19.5053 36.8 19.5453 36.8L20.2653 36.788C20.5293 36.788 20.7413 36.684 20.9013 36.476C21.0693 36.26 21.1573 35.976 21.1653 35.624V31.976C21.1653 31.616 21.0813 31.332 20.9133 31.124C20.7533 30.908 20.5333 30.8 20.2533 30.8H19.5453C19.5053 30.8 19.4853 30.82 19.4853 30.86V36.74ZM27.8826 30.656C27.8826 30.696 27.8666 30.732 27.8346 30.764C27.8106 30.788 27.7786 30.8 27.7386 30.8H25.1586C25.1186 30.8 25.0986 30.82 25.0986 30.86V33.128C25.0986 33.168 25.1186 33.188 25.1586 33.188H26.6826C26.7226 33.188 26.7546 33.204 26.7786 33.236C26.8106 33.26 26.8266 33.292 26.8266 33.332V34.256C26.8266 34.296 26.8106 34.332 26.7786 34.364C26.7546 34.388 26.7226 34.4 26.6826 34.4H25.1586C25.1186 34.4 25.0986 34.42 25.0986 34.46V37.856C25.0986 37.896 25.0826 37.932 25.0506 37.964C25.0266 37.988 24.9946 38 24.9546 38H23.8506C23.8106 38 23.7746 37.988 23.7426 37.964C23.7186 37.932 23.7066 37.896 23.7066 37.856V29.744C23.7066 29.704 23.7186 29.672 23.7426 29.648C23.7746 29.616 23.8106 29.6 23.8506 29.6H27.7386C27.7786 29.6 27.8106 29.616 27.8346 29.648C27.8666 29.672 27.8826 29.704 27.8826 29.744V30.656Z" fill="white"/>
</svg>