<?xml version="1.0" encoding="utf-8"?>
<!-- Generator: Adobe Illustrator 23.0.4, SVG Export Plug-In . SVG Version: 6.00 Build 0)  -->
<svg version="1.1" id="Layer_1" xmlns="http://www.w3.org/2000/svg" xmlns:xlink="http://www.w3.org/1999/xlink" x="0px" y="0px"
	 viewBox="23 23 54 54" xml:space="preserve">
<style type="text/css">
	.st0{fill:#010101;}
	.st1{fill:none;stroke:#000000;stroke-miterlimit:10;}
</style>
<g>
	<path class="st0" d="M57.56,42.95c0-4-3.25-7.25-7.25-7.25s-7.25,3.25-7.25,7.25s3.25,7.25,7.25,7.25S57.56,46.95,57.56,42.95"/>
	<path class="st0" d="M63.98,60.04c0.54,2.16-0.9,4.31-2.86,4.31H39.51c-1.95,0-3.4-2.15-2.86-4.31c1.03-4.13,3.51-7.59,6.78-9.63
		c1.81,1.67,4.23,2.69,6.88,2.69c2.65,0,5.07-1.02,6.88-2.69C60.46,52.45,62.94,55.91,63.98,60.04"/>
</g>
<circle class="st1" cx="50" cy="50" r="25"/>
</svg>
