<?xml version="1.0" encoding="utf-8"?>
<!-- Generator: Adobe Illustrator 24.1.2, SVG Export Plug-In . SVG Version: 6.00 Build 0)  -->
<svg version="1.1" id="Layer_1" xmlns="http://www.w3.org/2000/svg" xmlns:xlink="http://www.w3.org/1999/xlink" x="0px" y="0px"
	 viewBox="0 0 21.6 21.6" style="enable-background:new 0 0 21.6 21.6;" xml:space="preserve">
<style type="text/css">
	.st0{fill:#FFFFFF;}
	.st1{fill:#939598;}
</style>
<g>
	<circle class="st0" cx="10.8" cy="10.8" r="10.8"/>
</g>
<g>
	<circle class="st1" cx="10.6" cy="10.8" r="6.2"/>
	<g>
		<path class="st0" d="M9.8,8c0-0.5,0.3-0.8,0.8-0.8c0.5,0,0.8,0.3,0.8,0.8c0,0.5-0.3,0.8-0.8,0.8C10.1,8.8,9.8,8.5,9.8,8z M10,13.8
			V9.4c0-0.1,0.1-0.2,0.2-0.2h1c0.1,0,0.2,0.1,0.2,0.2v4.4c0,0.1-0.1,0.2-0.2,0.2h-1C10,13.9,10,13.9,10,13.8z"/>
	</g>
</g>
</svg>
