<?xml version="1.0" encoding="utf-8"?>
<!-- Generator: Adobe Illustrator 21.0.0, SVG Export Plug-In . SVG Version: 6.00 Build 0)  -->
<svg version="1.1" id="Layer_1" xmlns="http://www.w3.org/2000/svg" xmlns:xlink="http://www.w3.org/1999/xlink" x="0px" y="0px"
	 viewBox="0 0 47.8 4.2" style="enable-background:new 0 0 47.8 4.2;" xml:space="preserve">
<style type="text/css">
	.st0{fill:#4F5659;}
</style>
<g>
	<path class="st0" d="M21.9,3.1c0.5,1,1.8,1.4,2.8,0.8c1-0.5,1.4-1.8,0.8-2.8c-0.5-1-1.8-1.4-2.8-0.8C21.8,0.9,21.4,2.1,21.9,3.1z
		 M24.6,1.7c0.3,0.5,0.1,1.1-0.4,1.3c-0.5,0.3-1.1,0.1-1.3-0.4c-0.3-0.5-0.1-1.1,0.4-1.3C23.7,1,24.3,1.2,24.6,1.7z"/>
	<g>
		<path class="st0" d="M21.9,1.3L0,3.2l22-0.1C21.6,2.5,21.6,1.9,21.9,1.3z"/>
	</g>
</g>
</svg>
