<?xml version="1.0" encoding="utf-8"?>
<!-- Generator: Adobe Illustrator 21.0.0, SVG Export Plug-In . SVG Version: 6.00 Build 0)  -->
<svg version="1.1" id="Layer_1" xmlns="http://www.w3.org/2000/svg" xmlns:xlink="http://www.w3.org/1999/xlink" x="0px" y="0px"
	 viewBox="0 0 67 34.9" style="enable-background:new 0 0 67 34.9;" xml:space="preserve">
<style type="text/css">
	.st0{fill:#4F5659;}
	.st1{fill:#FF8300;}
	.st2{fill:#00AEE6;}
	.st3{fill:#F5333F;}
</style>
<g>
	<rect x="33.3" y="3.6" class="st0" width="0.5" height="5.3"/>
	<rect x="3.5" y="33" class="st0" width="5.3" height="0.5"/>
	<rect x="58.1" y="33" class="st0" width="5.3" height="0.5"/>
	<g>
		<rect x="30.2" y="3.8" transform="matrix(0.9945 -0.1045 0.1045 0.9945 -0.3351 3.2086)" class="st0" width="0.5" height="2"/>
		<rect x="27.2" y="4.2" transform="matrix(0.9782 -0.2076 0.2076 0.9782 -0.4827 5.81)" class="st0" width="0.5" height="2"/>
		<rect x="24.3" y="5" transform="matrix(0.9512 -0.3087 0.3087 0.9512 -0.652 7.8675)" class="st0" width="0.5" height="2"/>
		<rect x="21.4" y="6.1" transform="matrix(0.9138 -0.4062 0.4062 0.9138 -1.0255 9.4048)" class="st0" width="0.5" height="2"/>
	</g>
	<g>
		<rect x="35.5" y="4.6" transform="matrix(0.1055 -0.9944 0.9944 0.1055 27.8757 40.622)" class="st0" width="2" height="0.5"/>
		<rect x="38.5" y="5" transform="matrix(0.2071 -0.9783 0.9783 0.2071 26.168 42.8848)" class="st0" width="2" height="0.5"/>
		<rect x="41.5" y="5.8" transform="matrix(0.3087 -0.9512 0.9512 0.3087 23.6509 44.5959)" class="st0" width="2" height="0.5"/>
		<rect x="44.3" y="6.9" transform="matrix(0.4063 -0.9137 0.9137 0.4063 20.3708 45.6774)" class="st0" width="2" height="0.5"/>
	</g>
	<g>
		<polygon class="st0" points="61.4,31 61.4,30.5 63.4,30.3 63.5,30.8 		"/>
		<rect x="60.9" y="27.4" transform="matrix(0.9784 -0.2068 0.2068 0.9784 -4.3816 13.3995)" class="st0" width="2" height="0.5"/>
		<rect x="60.1" y="24.5" transform="matrix(0.9512 -0.3087 0.3087 0.9512 -4.6582 20.0767)" class="st0" width="2" height="0.5"/>
		<rect x="59" y="21.6" transform="matrix(0.9139 -0.4059 0.4059 0.9139 -3.712 26.2375)" class="st0" width="2" height="0.5"/>
	</g>
	<g>
		<rect x="16.4" y="9" transform="matrix(0.8148 -0.5798 0.5798 0.8148 -2.7151 11.5071)" class="st0" width="0.5" height="2"/>
		<rect x="14" y="10.9" transform="matrix(0.7498 -0.6617 0.6617 0.7498 -4.3135 12.4174)" class="st0" width="0.5" height="2"/>
		<rect x="11.9" y="13" transform="matrix(0.6765 -0.7364 0.7364 0.6765 -6.3678 13.4426)" class="st0" width="0.5" height="2"/>
		<rect x="9.9" y="15.3" transform="matrix(0.5962 -0.8029 0.8029 0.5962 -9.0365 14.7082)" class="st0" width="0.5" height="2"/>
	</g>
	<g>
		<rect x="56.2" y="16.6" transform="matrix(0.8144 -0.5803 0.5803 0.8144 0.8491 36.3243)" class="st0" width="2" height="0.5"/>
		<rect x="54.3" y="14.2" transform="matrix(0.7496 -0.6619 0.6619 0.7496 4.2873 40.2237)" class="st0" width="2" height="0.5"/>
		<rect x="52.1" y="12.1" transform="matrix(0.6762 -0.7368 0.7368 0.6762 8.1357 43.1117)" class="st0" width="2" height="0.5"/>
		<rect x="49.8" y="10.1" transform="matrix(0.596 -0.803 0.803 0.596 12.217 44.9912)" class="st0" width="2" height="0.5"/>
		<rect x="18.9" y="7.5" transform="matrix(0.8646 -0.5025 0.5025 0.8646 -1.6854 10.7642)" class="st0" width="0.5" height="2"/>
		<rect x="57.9" y="18.8" transform="matrix(0.8648 -0.5021 0.5021 0.8648 -1.601 32.1493)" class="st0" width="2" height="0.5"/>
		<rect x="8.5" y="17.9" transform="matrix(0.506 -0.8625 0.8625 0.506 -12.0173 16.8992)" class="st0" width="0.5" height="2"/>
		<rect x="47.4" y="8.4" transform="matrix(0.5059 -0.8626 0.8626 0.5059 16.4761 46.01)" class="st0" width="2" height="0.5"/>
	</g>
	<g>
		<polygon class="st0" points="5.6,31 3.6,30.8 3.6,30.3 5.6,30.5 		"/>
		<rect x="4.8" y="26.7" transform="matrix(0.2077 -0.9782 0.9782 0.2077 -23.0595 26.8399)" class="st0" width="0.5" height="2"/>
		<rect x="5.6" y="23.7" transform="matrix(0.3087 -0.9512 0.9512 0.3087 -19.4521 22.6601)" class="st0" width="0.5" height="2"/>
		<rect x="6.7" y="20.8" transform="matrix(0.4062 -0.9138 0.9138 0.4062 -15.8574 19.2758)" class="st0" width="0.5" height="2"/>
	</g>
</g>
<g>
	<path class="st1" d="M51.1,5c-5.2-3.3-11.3-5-17.6-5c-6.1,0-12,1.6-17.1,4.7l1,1.4c4.8-2.9,10.4-4.4,16.1-4.4
		c5.9,0,11.6,1.6,16.6,4.7L51.1,5z"/>
	<path class="st2" d="M16,5c-2.2,1.4-4.3,3-6.2,4.9c-6.9,6.8-9.6,16.3-9.8,25h1.7C1.9,26.7,4.1,18,11,11c1.8-1.8,3.8-3.4,5.9-4.7
		L16,5z"/>
	<path class="st3" d="M57.2,9.8c-1.7-1.7-3.6-3.3-5.7-4.6l-1,1.4c2,1.2,3.8,2.7,5.5,4.4c6.5,6.5,9.1,15.6,9.3,23.8H67
		C66.8,26.2,64.1,16.7,57.2,9.8z"/>
</g>
</svg>
