<?xml version="1.0" encoding="utf-8"?>
<!-- Generator: Adobe Illustrator 21.0.0, SVG Export Plug-In . SVG Version: 6.00 Build 0)  -->
<svg version="1.1" id="Layer_1" xmlns="http://www.w3.org/2000/svg" xmlns:xlink="http://www.w3.org/1999/xlink" x="0px" y="0px"
	 viewBox="0 0 12 12" style="enable-background:new 0 0 12 12;" xml:space="preserve">
<style type="text/css">
	.st0{fill:#FFFFFF;}
	.st1{fill:#939598;}
</style>
<g>
	<g>
		<circle class="st0" cx="6" cy="6" r="5.95"/>
	</g>
	<path class="st1" d="M2.77,6.26l3.02,3.02c0.12,0.12,0.31,0.12,0.43,0l3.02-3.02l0,0c0.12-0.12,0.11-0.31,0-0.43
		c-0.12-0.12-0.31-0.11-0.43,0L6.3,8.34V2.85c0-0.17-0.14-0.3-0.3-0.3s-0.3,0.14-0.3,0.3v5.49L3.19,5.83
		C3.13,5.77,3.06,5.74,2.97,5.74c-0.17,0-0.3,0.13-0.3,0.3C2.68,6.12,2.71,6.2,2.77,6.26z"/>
</g>
</svg>
