<?xml version="1.0" encoding="utf-8"?>
<!-- Generator: Adobe Illustrator 21.0.0, SVG Export Plug-In . SVG Version: 6.00 Build 0)  -->
<svg version="1.1" id="Layer_1" xmlns="http://www.w3.org/2000/svg" xmlns:xlink="http://www.w3.org/1999/xlink" x="0px" y="0px"
	 viewBox="0 0 12 12" style="enable-background:new 0 0 12 12;" xml:space="preserve">
<style type="text/css">
	.st0{fill:#FFFFFF;}
	.st1{fill:#00AEE6;}
</style>
<g>
	<g>
		<circle class="st0" cx="6" cy="6" r="5.9"/>
	</g>
	<path class="st1" d="M9.2,5.7l-3-3c-0.1-0.1-0.3-0.1-0.4,0l-3,3l0,0C2.6,5.8,2.7,6,2.8,6.1c0.1,0.1,0.3,0.1,0.4,0l2.5-2.5v5.5
		c0,0.2,0.1,0.3,0.3,0.3s0.3-0.1,0.3-0.3V3.6l2.5,2.5C8.9,6.2,8.9,6.2,9,6.2c0.2,0,0.3-0.1,0.3-0.3C9.3,5.8,9.3,5.7,9.2,5.7z"/>
</g>
</svg>
