<?xml version="1.0" encoding="utf-8"?>
<!-- Generator: Adobe Illustrator 21.0.0, SVG Export Plug-In . SVG Version: 6.00 Build 0)  -->
<svg version="1.1" id="Layer_1" xmlns="http://www.w3.org/2000/svg" xmlns:xlink="http://www.w3.org/1999/xlink" x="0px" y="0px"
	 viewBox="0 0 12 12" style="enable-background:new 0 0 12 12;" xml:space="preserve">
<style type="text/css">
	.st0{fill:#FFFFFF;}
	.st1{fill:#EC1C24;}
</style>
<g>
	<g>
		<circle class="st0" cx="6" cy="6" r="5.95"/>
	</g>
	<path class="st1" d="M9.23,5.66L6.21,2.64c-0.12-0.12-0.31-0.12-0.43,0L2.76,5.66l0,0c-0.12,0.12-0.11,0.31,0,0.43
		c0.12,0.12,0.31,0.11,0.43,0L5.7,3.58v5.49c0,0.17,0.14,0.3,0.3,0.3s0.3-0.14,0.3-0.3V3.58l2.51,2.51
		c0.06,0.06,0.13,0.09,0.22,0.09c0.17,0,0.3-0.13,0.3-0.3C9.33,5.8,9.29,5.72,9.23,5.66z"/>
</g>
</svg>
