<svg width="12" height="10" viewBox="0 0 12 10" fill="none" xmlns="http://www.w3.org/2000/svg">
<g clip-path="url(#clip0)">
<path d="M10.2712 5.54167H11.6879V6.45834H10.2712V8.08334L7.93787 6.00001L10.2712 3.91667V5.54167Z" fill="black"/>
<path d="M5.85453 5.83333C6.77501 5.83333 7.5212 5.08714 7.5212 4.16667C7.5212 3.24619 6.77501 2.5 5.85453 2.5C4.93406 2.5 4.18787 3.24619 4.18787 4.16667C4.18787 5.08714 4.93406 5.83333 5.85453 5.83333Z" fill="black"/>
<path d="M5.85453 0.833328C3.56287 0.833328 1.68787 2.70833 1.68787 5C1.68787 7.29166 3.56287 9.16666 5.85453 9.16666C6.97953 9.16666 8.0212 8.70833 8.7712 7.95833C8.68787 7.875 8.60453 7.70833 8.5212 7.62499C7.93787 6.79166 6.93787 6.25 5.85453 6.25C4.7712 6.25 3.7712 6.79166 3.1462 7.62499C2.5212 6.95833 2.10453 6 2.10453 5C2.10453 2.91666 3.7712 1.24999 5.85453 1.24999C7.5212 1.24999 8.8962 2.33333 9.3962 3.79166L9.72953 3.49999C9.1462 1.95833 7.6462 0.833328 5.85453 0.833328Z" fill="black"/>
</g>
<defs>
<clipPath id="clip0">
<rect width="10.8333" height="10" fill="white" transform="translate(0.854492)"/>
</clipPath>
</defs>
</svg>
