<svg width="192" height="80" viewBox="0 0 192 80" fill="none" xmlns="http://www.w3.org/2000/svg">
<path d="M14.5987 53.758H14.4076L9.31209 79.5542H6L11.8599 51.0192L6 24.2676H9.94903L14.344 47.516H14.535L19.1847 24.2676H22.4968L17.0191 51.0192L23.0701 79.5542H19.121L14.5987 53.758Z" fill="black"/>
<path d="M45.4267 61.019V73.3756C45.4267 77.1336 43.5796 79.9999 38.3566 79.9999C33.07 79.9999 31.2229 77.1336 31.2229 73.3756V30.382C31.2229 26.3056 33.07 23.7578 38.3566 23.7578C43.5159 23.7578 45.4267 26.3056 45.4267 30.382V41.5285H41.4777V30.8279C41.4777 28.5986 40.9044 27.0699 38.4203 27.0699C35.9363 27.0699 35.2356 28.5986 35.2356 30.8279V73.4393C35.2356 75.0954 35.8726 76.624 38.4203 76.624C40.9681 76.624 41.4777 75.0954 41.4777 73.6304V60.9553H45.4267V61.019Z" fill="black"/>
<path d="M55.6815 40.0001V29.4269C55.6815 25.1593 58.7388 23.8218 63.2611 23.8218C67.5286 23.8218 70.5223 25.1593 70.5223 29.4269V79.5543H66.5732V76.8154H66.3821C65.6178 78.4715 64.4076 80.0001 61.2229 80.0001C58.2293 80.0001 55.7452 78.9173 55.7452 75.032V54.0129C55.7452 49.1721 57.8471 46.3058 64.9172 46.3058H66.7006V30.3186C66.7006 28.5352 65.9363 27.1339 63.3885 27.1339C60.5223 27.1339 59.7579 28.5352 59.7579 30.3186V40.0001H55.6815ZM59.6305 74.1403C59.6305 75.6689 60.3949 76.688 62.6242 76.688C64.9172 76.688 66.5732 74.0129 66.5732 70.6371V49.618H65.4904C61.7325 49.618 59.6305 50.5097 59.6305 54.7135V74.1403Z" fill="black"/>
<path d="M81.9236 0H85.8726V79.5541H81.9236V0Z" fill="black"/>
<path d="M100.395 61.1466V73.3759C100.395 75.6052 101.732 76.688 103.707 76.688C105.554 76.688 106.892 75.6052 106.892 73.3759V63.8854C106.892 60.8918 106.764 58.7899 105.554 56.8154L99.0573 46.1147L97.8471 44.0128C96.7643 42.0383 96.4458 40.3822 96.4458 37.7071V29.8727C96.4458 26.4332 98.7388 23.6943 103.58 23.6943C108.42 23.6943 110.65 25.9873 110.65 30.0638V39.6179H106.701V30.7007C106.701 28.4714 105.936 26.9427 103.643 26.9427C101.223 26.9427 100.459 28.4714 100.459 30.7007V38.2166C100.459 40.0638 100.777 41.8472 101.987 43.6943L103.962 47.0064L109.121 55.1593C110.459 57.3886 110.904 59.4268 110.904 62.2931V73.3122C110.904 77.2612 108.229 79.809 103.516 79.809C99.312 79.809 96.4458 77.7071 96.4458 73.9491V60.9555H100.395V61.1466Z" fill="#F7323F"/>
<path d="M134.535 61.019V73.3756C134.535 77.1336 132.688 79.9999 127.465 79.9999C122.178 79.9999 120.331 77.1336 120.331 73.3756V30.382C120.331 26.3056 122.178 23.7578 127.465 23.7578C132.624 23.7578 134.535 26.3056 134.535 30.382V41.5285H130.586V30.8279C130.586 28.5986 130.013 27.0699 127.529 27.0699C124.981 27.0699 124.344 28.5986 124.344 30.8279V73.4393C124.344 75.0954 124.981 76.624 127.529 76.624C130.076 76.624 130.586 75.0954 130.586 73.6304V60.9553H134.535V61.019Z" fill="#F7323F"/>
<path d="M144.79 40.0001V29.4269C144.79 25.1593 147.847 23.8218 152.369 23.8218C156.637 23.8218 159.631 25.1593 159.631 29.4269V79.5543H155.682V76.8154H155.49C154.726 78.4715 153.516 80.0001 150.331 80.0001C147.338 80.0001 144.853 78.9173 144.853 75.032V54.0129C144.853 49.1721 146.955 46.3058 154.025 46.3058H155.809V30.3186C155.809 28.5352 155.045 27.1339 152.497 27.1339C149.631 27.1339 148.866 28.5352 148.866 30.3186V40.0001H144.79ZM148.803 74.1403C148.803 75.6689 149.567 76.688 151.796 76.688C154.089 76.688 155.745 74.0129 155.745 70.6371V49.618H154.662C150.904 49.618 148.803 50.5097 148.803 54.7135V74.1403Z" fill="#F7323F"/>
<path d="M171.478 24.2037H175.427V27.1973H175.618C176.255 25.796 178.293 23.7578 180.777 23.7578C184.535 23.7578 186.637 25.2865 186.637 30.2546V79.4903H182.688V31.6559C182.688 28.1527 181.669 27.0062 179.376 27.0062C177.592 27.0062 175.427 28.9807 175.427 33.0572V79.4266H171.478V24.2037Z" fill="#F7323F"/>
</svg>
