<svg width="193" height="80" viewBox="0 0 193 80" fill="none" xmlns="http://www.w3.org/2000/svg">
<path d="M59.5844 70.9679C49.7206 69.7062 41.4052 67.4697 34.6381 64.2582C28.2151 67.2976 19.7277 69.8783 9.17566 72.0002C8.83157 70.9106 8.25809 69.7636 7.39787 68.5019C16.7456 67.0682 24.5449 65.1758 30.7958 62.8819C25.8639 60.1865 21.2187 56.4589 16.8029 51.6417C12.9033 58.2367 8.08605 63.8568 2.29391 68.5019C1.60574 67.4123 0.860218 66.3801 0 65.2905C7.97135 59.5557 14.1076 51.2976 18.3513 40.4015H1.54839V37.19H19.613C20.3011 35.0681 20.8746 32.8889 21.3907 30.7671L24.9463 31.2832C24.4302 33.4051 23.8567 35.4122 23.1685 37.19H61.3622V40.4015H21.9069C21.0467 42.7528 20.1291 44.932 19.0968 47.1112H53.7349V50.8388C49.3191 55.484 44.3299 59.3836 38.7098 62.6525C44.9607 64.7743 52.5306 66.3801 61.3622 67.4697C61.0181 67.9858 60.502 68.9034 59.8138 70.165C59.6991 70.5091 59.5844 70.7385 59.5844 70.9679ZM3.38352 25.3764H43.355C44.0432 24.2867 45.0754 22.7957 46.3944 20.8459C48.1148 18.1505 49.3765 16.3154 50.2367 15.2258L53.2762 16.8315C52.4159 18.0932 51.1543 19.871 49.4338 22.1649C48.4016 23.5986 47.6561 24.6882 47.1399 25.3764H59.355V33.9212H56.0288V28.5878H6.65236V33.9212H3.38352V25.3764ZM58.8389 13.0466C48.1722 13.5627 30.165 14.1935 4.87457 14.939C4.70252 13.6774 4.47312 12.5304 4.12904 11.4408C21.4481 11.4408 39.3406 10.81 57.8066 9.54834L58.8389 13.0466ZM11.0108 17.6344L13.5341 16.0286C15.2545 18.1505 16.8603 20.5018 18.3513 22.9677L15.3119 24.8602C14.6237 23.7706 13.7061 22.1649 12.5018 20.043C11.8137 18.9534 11.3549 18.1505 11.0108 17.6344ZM49.4338 50.3227H20.1864C24.4302 54.7958 29.3621 58.3514 34.9248 61.0467C40.5449 58.1793 45.3621 54.6238 49.4338 50.3227ZM28.5592 16.5448L31.3693 15.2258C31.5413 15.5699 31.8854 16.1433 32.4015 16.8315C33.7779 19.3548 34.8675 21.362 35.7277 22.9677L32.6883 24.5735C31.5987 22.1075 30.2223 19.4122 28.5592 16.5448Z" fill="black"/>
<path d="M67.4983 16.5448C67.4983 15.8567 67.3263 14.767 66.9822 13.3334C73.9213 12.9893 81.2618 12.1864 88.8891 10.9247L89.6346 14.423C86.4231 14.9391 83.2117 15.3405 79.9428 15.5126V27.785H89.864V30.9965H79.9428V39.0252L81.4912 37.4194C82.0074 37.7635 82.7529 38.5091 83.7851 39.5413C86.8246 42.4087 88.8891 44.3585 89.9214 45.4481L87.3981 47.8568C86.8819 47.3406 85.8497 46.3657 84.3586 44.932C82.2941 42.8101 80.8604 41.2618 80.0575 40.4015V71.7708H76.7313V37.9929C74.3801 46.3657 71.1113 53.5342 67.0396 59.441C66.5234 58.0073 65.95 56.6883 65.2618 55.4267C69.6776 49.3478 73.4625 41.2044 76.7313 31.0538H66.0646V27.785H76.7313V15.9713C75.6991 16.1434 74.208 16.2581 72.1435 16.2581C70.0217 16.4875 68.5306 16.5448 67.4983 16.5448ZM88.373 51.6417L113.033 49.2331V8H116.359V49.0037L126.796 47.9141L127.025 51.4123L116.359 52.4446V71.7135H113.033V52.674L88.6024 55.0826L88.373 51.6417ZM92.1579 33.6918L94.4518 31.2832C97.8354 34.1506 101.219 37.0754 104.66 40.1148L102.136 42.8102C100.932 41.7205 99.3264 40.2868 97.3192 38.5091C95.0827 36.3872 93.3622 34.7814 92.1579 33.6918ZM96.0002 17.6344L98.0074 15.2258C100.703 17.1757 104.258 20.2151 108.674 24.3441L106.151 27.0395C102.595 23.4266 99.2117 20.3298 96.0002 17.6344Z" fill="black"/>
<path d="M141.821 59.4411C144 58.0074 147.327 55.3121 151.742 51.4124L152.259 55.4268C149.047 57.9501 145.549 60.7601 141.821 63.9716C141.305 64.1437 140.445 64.8892 139.298 66.0935L136.775 63.3981C137.979 61.9644 138.552 60.0146 138.552 57.4913V33.6346H130.409V30.1364H141.879V59.4411H141.821ZM144.861 22.9679C144.172 22.0503 142.911 20.5593 141.018 18.4374C138.323 15.398 136.431 13.2761 135.398 12.0144L138.208 9.89258C138.896 10.8101 140.101 12.1291 141.764 13.9069C144.975 17.4625 146.925 19.6991 147.613 20.6166L144.861 22.9679ZM162.409 50.5522L165.449 52.4447C161.549 58.5236 156.732 64.8318 150.94 71.4842L148.129 68.7888C153.463 63.4555 158.165 57.3766 162.409 50.5522ZM154.552 12.5306H187.642V44.7027H154.552V12.5306ZM158.108 16.0288V41.4912H184.316V16.0288H158.108ZM175.656 52.4447L178.467 50.5522C183.398 56.8031 187.986 62.7673 192.23 68.5021L189.191 70.9107C185.922 66.2655 181.449 60.1293 175.656 52.4447Z" fill="#F7323F"/>
</svg>
