<svg width="50" height="42" viewBox="0 0 50 42" fill="none" xmlns="http://www.w3.org/2000/svg">
<path d="M42.8739 23.7085H49.9258V28.2919H42.8739V36.4169L31.2591 26.0002L42.8739 15.5835V23.7085Z" fill="black"/>
<path d="M20.8886 25.1667C25.4706 25.1667 29.185 21.4357 29.185 16.8333C29.185 12.231 25.4706 8.5 20.8886 8.5C16.3067 8.5 12.5923 12.231 12.5923 16.8333C12.5923 21.4357 16.3067 25.1667 20.8886 25.1667Z" fill="black"/>
<path d="M20.8886 0.166794C9.48122 0.166794 0.147888 9.54179 0.147888 21.0001C0.147888 32.4584 9.48122 41.8335 20.8886 41.8335C26.4886 41.8335 31.6739 39.5419 35.4072 35.7919C34.9925 35.375 34.5775 34.5419 34.1628 34.125C31.2592 29.9584 26.2812 27.25 20.8886 27.25C15.4961 27.25 10.5183 29.9584 7.40717 34.125C4.29606 30.7919 2.22197 26.0001 2.22197 21.0001C2.22197 10.5835 10.5183 2.25014 20.8886 2.25014C29.185 2.25014 36.0294 7.66679 38.5183 14.9585L40.1775 13.5001C37.2739 5.79179 29.8072 0.166794 20.8886 0.166794Z" fill="black"/>
</svg>
