<svg width="954" height="116" viewBox="0 0 954 116" fill="none" xmlns="http://www.w3.org/2000/svg">
<path d="M812.189 0H0V64.4445L812.189 0Z" fill="#F7323F"/>
<path d="M782.847 82.9463C774.899 81.93 768.2 80.1283 762.747 77.5413C757.573 79.9897 750.734 82.0685 742.231 83.7779C741.954 82.9002 741.492 81.9762 740.799 80.9599C748.331 79.8049 754.614 78.2805 759.652 76.4326C755.678 74.2614 751.934 71.2585 748.376 67.378C745.235 72.6906 741.353 77.218 736.686 80.9599C736.132 80.0822 735.531 79.2506 734.838 78.3728C741.261 73.7531 746.205 67.1008 749.625 58.3233H736.085V55.7364H750.64C751.196 54.0272 751.657 52.2717 752.073 50.5623L754.938 50.9781C754.522 52.6874 754.06 54.3043 753.505 55.7364H784.28V58.3233H752.488C751.796 60.2175 751.057 61.973 750.224 63.7285H778.134V66.7313C774.577 70.4732 770.556 73.6146 766.028 76.2478C771.064 77.9572 777.164 79.2506 784.28 80.1283C784.003 80.5441 783.587 81.2833 783.033 82.2996C782.941 82.5769 782.847 82.7616 782.847 82.9463ZM737.564 46.2199H769.77C770.326 45.3421 771.157 44.1409 772.219 42.5702C773.605 40.3991 774.622 38.9207 775.315 38.043L777.765 39.3366C777.072 40.3529 776.055 41.785 774.669 43.6328C773.837 44.7878 773.236 45.6655 772.821 46.2199H782.664V53.1032H779.982V48.8068H740.198V53.1032H737.564V46.2199ZM782.246 36.2875C773.652 36.7032 759.142 37.2115 738.765 37.812C738.626 36.7957 738.443 35.8717 738.166 34.994C752.119 34.994 766.536 34.4858 781.415 33.4695L782.246 36.2875ZM743.709 39.9833L745.743 38.6897C747.129 40.3991 748.423 42.2931 749.625 44.2796L747.175 45.804C746.621 44.9263 745.881 43.6328 744.911 41.9235C744.357 41.0458 743.986 40.3991 743.709 39.9833ZM774.669 66.3154H751.103C754.522 69.9188 758.496 72.7831 762.978 74.9544C767.506 72.6445 771.388 69.7803 774.669 66.3154ZM757.85 39.1055L760.114 38.043C760.253 38.3201 760.53 38.7822 760.946 39.3366C762.054 41.3691 762.933 42.9861 763.625 44.2796L761.176 45.573C760.298 43.5867 759.189 41.4154 757.85 39.1055Z" fill="black"/>
<path d="M789.224 39.1055C789.224 38.5512 789.085 37.6734 788.808 36.5186C794.4 36.2413 800.314 35.5946 806.46 34.5783L807.06 37.3963C804.473 37.812 801.885 38.1355 799.251 38.274V48.1601H807.245V50.7471H799.251V57.2147L800.499 55.9212C800.915 56.1985 801.515 56.7989 802.348 57.6306C804.796 59.9404 806.46 61.5111 807.292 62.3888L805.258 64.3291C804.842 63.9133 804.011 63.128 802.809 61.973C801.146 60.2638 799.99 59.0165 799.344 58.3235V83.5931H796.664V56.3833C794.769 63.128 792.136 68.9026 788.855 73.6608C788.439 72.506 787.977 71.4434 787.422 70.427C790.98 65.5302 794.029 58.9702 796.664 50.7933H788.068V48.1601H796.664V38.6436C795.833 38.7822 794.63 38.8745 792.967 38.8745C791.258 39.0593 790.055 39.1055 789.224 39.1055ZM806.043 67.3781L825.913 65.4379V32.2222H828.593V65.2531L837.003 64.3753L837.188 67.1933L828.593 68.0248V83.5469H825.913V68.2096L806.228 70.1499L806.043 67.3781ZM809.094 52.9184L810.942 50.9781C813.669 53.288 816.394 55.6441 819.167 58.0925L817.133 60.2638C816.163 59.386 814.869 58.231 813.253 56.7989C811.45 55.0897 810.064 53.7961 809.094 52.9184ZM812.189 39.9833L813.807 38.043C815.978 39.6137 818.843 42.0621 822.401 45.3884L820.367 47.5595C817.504 44.6492 814.777 42.1546 812.189 39.9833Z" fill="black"/>
<path d="M849.11 73.6606C850.865 72.5058 853.545 70.3345 857.103 67.1932L857.519 70.427C854.932 72.4596 852.114 74.7232 849.11 77.3103C848.694 77.4488 848.001 78.0495 847.076 79.0195L845.043 76.8482C846.014 75.6934 846.475 74.1227 846.475 72.09V52.8722H839.915V50.0542H849.155V73.6606H849.11ZM851.558 44.2795C851.003 43.5403 849.988 42.3392 848.462 40.63C846.291 38.1816 844.765 36.4722 843.934 35.4559L846.198 33.7467C846.752 34.4857 847.723 35.5484 849.063 36.9803C851.651 39.8446 853.222 41.6463 853.777 42.3854L851.558 44.2795ZM865.699 66.5002L868.146 68.0247C865.006 72.9216 861.124 78.0032 856.457 83.3621L854.193 81.1908C858.49 76.8945 862.279 71.9977 865.699 66.5002ZM859.367 35.8717H886.029V61.788H859.367V35.8717ZM862.232 38.6897V59.2011H883.349V38.6897H862.232ZM876.371 68.0247L878.636 66.5002C882.609 71.5356 886.306 76.3401 889.726 80.9598L887.276 82.9C884.643 79.1581 881.038 74.215 876.371 68.0247Z" fill="#F7323F"/>
</svg>
