<svg width="954" height="116" viewBox="0 0 954 116" fill="none" xmlns="http://www.w3.org/2000/svg">
<path d="M812.189 0H0V64.4445L812.189 0Z" fill="#F7323F"/>
<path d="M746.6 69.0829H746.447L742.341 89.8631H739.672L744.394 66.8766L739.672 45.3267H742.855L746.395 64.0546H746.55L750.295 45.3267H752.964L748.552 66.8766L753.426 89.8631H750.245L746.6 69.0829Z" fill="black"/>
<path d="M771.44 74.932V84.8859C771.44 87.9132 769.952 90.2221 765.743 90.2221C761.484 90.2221 759.995 87.9132 759.995 84.8859V50.2522C759.995 46.9684 761.484 44.916 765.743 44.916C769.901 44.916 771.44 46.9684 771.44 50.2522V59.2314H768.258V50.6113C768.258 48.8155 767.796 47.5842 765.794 47.5842C763.793 47.5842 763.229 48.8155 763.229 50.6113V84.9373C763.229 86.2713 763.741 87.5027 765.794 87.5027C767.848 87.5027 768.258 86.2713 768.258 85.0912V74.8806H771.44V74.932Z" fill="black"/>
<path d="M779.703 58.0002V49.4827C779.703 46.0451 782.166 44.9676 785.811 44.9676C789.248 44.9676 791.66 46.0451 791.66 49.4827V89.8631H788.479V87.6568H788.325C787.709 88.9908 786.734 90.2224 784.169 90.2224C781.756 90.2224 779.755 89.3501 779.755 86.2202V69.2881C779.755 65.3886 781.448 63.0797 787.145 63.0797H788.581V50.2011C788.581 48.7645 787.965 47.6356 785.912 47.6356C783.603 47.6356 782.987 48.7645 782.987 50.2011V58.0002H779.703ZM782.884 85.5018C782.884 86.7334 783.502 87.5542 785.297 87.5542C787.145 87.5542 788.479 85.3992 788.479 82.6798V65.7478H787.606C784.578 65.7478 782.884 66.4661 782.884 69.8525V85.5018Z" fill="black"/>
<path d="M800.848 25.7778H804.029V89.8631H800.848V25.7778Z" fill="black"/>
<path d="M815.73 75.0348V84.8861C815.73 86.682 816.808 87.5542 818.398 87.5542C819.887 87.5542 820.965 86.682 820.965 84.8861V77.241C820.965 74.8295 820.862 73.1362 819.887 71.5457L814.653 62.9258L813.678 61.2325C812.805 59.6419 812.549 58.3079 812.549 56.1529V49.8418C812.549 47.0712 814.395 44.8649 818.297 44.8649C822.196 44.8649 823.993 46.7121 823.993 49.9958V57.6923H820.811V50.509C820.811 48.7131 820.195 47.4817 818.348 47.4817C816.397 47.4817 815.781 48.7131 815.781 50.509V56.5634C815.781 58.0514 816.037 59.488 817.014 60.976L818.604 63.644L822.76 70.2117C823.839 72.0075 824.198 73.6494 824.198 75.9582V84.8348C824.198 88.016 822.043 90.0684 818.245 90.0684C814.858 90.0684 812.549 88.3751 812.549 85.348V74.8807H815.73V75.0348Z" fill="#F7323F"/>
<path d="M843.238 74.932V84.8859C843.238 87.9132 841.75 90.2221 837.541 90.2221C833.282 90.2221 831.795 87.9132 831.795 84.8859V50.2522C831.795 46.9684 833.282 44.916 837.541 44.916C841.699 44.916 843.238 46.9684 843.238 50.2522V59.2314H840.057V50.6113C840.057 48.8155 839.594 47.5842 837.593 47.5842C835.54 47.5842 835.027 48.8155 835.027 50.6113V84.9373C835.027 86.2713 835.54 87.5027 837.593 87.5027C839.646 87.5027 840.057 86.2713 840.057 85.0912V74.8806H843.238V74.932Z" fill="#F7323F"/>
<path d="M851.501 58.0002V49.4827C851.501 46.0451 853.965 44.9676 857.609 44.9676C861.048 44.9676 863.459 46.0451 863.459 49.4827V89.8631H860.278V87.6568H860.123C859.507 88.9908 858.532 90.2224 855.967 90.2224C853.554 90.2224 851.553 89.3501 851.553 86.2202V69.2881C851.553 65.3886 853.247 63.0797 858.943 63.0797H860.381V50.2011C860.381 48.7645 859.764 47.6356 857.712 47.6356C855.401 47.6356 854.786 48.7645 854.786 50.2011V58.0002H851.501ZM854.734 85.5018C854.734 86.7334 855.351 87.5542 857.146 87.5542C858.995 87.5542 860.329 85.3992 860.329 82.6798V65.7478H859.456C856.428 65.7478 854.734 66.4661 854.734 69.8525V85.5018Z" fill="#F7323F"/>
<path d="M873.005 45.2751H876.186V47.6866H876.341C876.853 46.5579 878.495 44.916 880.497 44.916C883.525 44.916 885.219 46.1474 885.219 50.1495V89.8116H882.037V51.2783C882.037 48.4564 881.216 47.5328 879.369 47.5328C877.931 47.5328 876.186 49.1234 876.186 52.4072V89.7603H873.005V45.2751Z" fill="#F7323F"/>
</svg>
