<svg width="16" height="16" viewBox="0 0 16 16" fill="none" xmlns="http://www.w3.org/2000/svg">
<path fill-rule="evenodd" clip-rule="evenodd" d="M8 16C12.4183 16 16 12.4183 16 8C16 3.58172 12.4183 0 8 0C3.58172 0 0 3.58172 0 8C0 12.4183 3.58172 16 8 16ZM8 14.6667C11.6819 14.6667 14.6667 11.6819 14.6667 8C14.6667 4.3181 11.6819 1.33333 8 1.33333C4.3181 1.33333 1.33333 4.3181 1.33333 8C1.33333 11.6819 4.3181 14.6667 8 14.6667Z" fill="#000000"/>
<path fill-rule="evenodd" clip-rule="evenodd" d="M5.6099 4.66666L4.66709 5.60947L7.02408 7.96646L4.66699 10.3235L5.6098 11.2664L7.96689 8.90926L10.3239 11.2663L11.2668 10.3235L8.9097 7.96646L11.2667 5.6095L10.3238 4.66669L7.96689 7.02365L5.6099 4.66666Z" fill="#000000"/>
</svg>