<svg width="17" height="19" viewBox="0 0 17 19" fill="none" xmlns="http://www.w3.org/2000/svg">
<path d="M15.2217 6.5637H14.781V4.43755C14.7806 4.42404 14.7793 4.41058 14.7771 4.39725C14.7777 4.31184 14.7472 4.22912 14.6913 4.16455L11.154 0.1235L11.1514 0.1209C11.1302 0.0980158 11.1062 0.0779212 11.0799 0.0610999L11.0565 0.0467997C11.034 0.0343054 11.0103 0.0242804 10.9856 0.0168997L10.9661 0.0103999C10.9391 0.00366652 10.9114 0.000175376 10.8836 0H2.18855C1.7914 0 1.469 0.32305 1.469 0.71955V6.56305H1.0283C0.4602 6.56305 0 7.02325 0 7.59135V12.9396C0 13.507 0.46085 13.9679 1.0283 13.9679H1.469V17.6287C1.469 18.0252 1.7914 18.3482 2.18855 18.3482H14.0614C14.4579 18.3482 14.781 18.0252 14.781 17.6287V13.9679H15.2217C15.7891 13.9679 16.25 13.5077 16.25 12.9396V7.59135C16.25 7.0239 15.7898 6.5637 15.2217 6.5637ZM2.18855 0.71955H10.5235V4.40115C10.5235 4.60005 10.6847 4.7606 10.8836 4.7606H14.0621V6.56305H2.18855V0.71955ZM7.57185 10.5788C6.69825 10.2668 6.1217 9.78315 6.1217 9.0194C6.1217 8.12305 6.8783 7.4451 8.11005 7.4451C8.71065 7.4451 9.139 7.5621 9.451 7.70965L9.1858 8.6606C8.84591 8.49506 8.47251 8.40988 8.09445 8.41165C7.57965 8.41165 7.33005 8.6528 7.33005 8.918C7.33005 9.2534 7.618 9.40095 8.3044 9.65835C9.2326 10.0015 9.66095 10.4845 9.66095 11.2255C9.66095 12.1069 8.9908 12.8551 7.54845 12.8551C6.94785 12.8551 6.3557 12.6913 6.0593 12.5275L6.3011 11.5531C6.70926 11.7615 7.15977 11.8736 7.618 11.8807C8.164 11.8807 8.4526 11.6539 8.4526 11.3113C8.4526 10.9837 8.20365 10.7972 7.57185 10.5788ZM1.37995 10.22C1.37995 8.4344 2.6585 7.44445 4.2484 7.44445C4.8646 7.44445 5.33195 7.5686 5.54255 7.67065L5.29295 8.6138C4.97721 8.48122 4.63762 8.41485 4.2952 8.4188C3.35985 8.4188 2.6273 8.98755 2.6273 10.1569C2.6273 11.2015 3.25065 11.8645 4.303 11.8645C4.6696 11.8645 5.0596 11.7949 5.30075 11.6929L5.473 12.6282C5.2624 12.729 4.7632 12.8544 4.13205 12.8544C2.3153 12.8551 1.37995 11.7169 1.37995 10.22ZM14.0614 17.435H2.18855V13.9685H14.0614V17.435ZM13.1007 12.7771H11.713L10.0295 7.52245H11.3314L11.9704 9.7448C12.1491 10.376 12.313 10.9688 12.4377 11.6233H12.4611C12.5941 10.9987 12.7526 10.3798 12.9363 9.7682L13.6071 7.5231H14.8694L13.1007 12.7771Z" fill="black"/>
</svg>
