<svg width="64" height="64" viewBox="0 0 64 64" fill="none" xmlns="http://www.w3.org/2000/svg">
    <path fill-rule="evenodd" clip-rule="evenodd" d="M64 32C64 49.6731 49.6731 64 32 64C14.3269 64 0 49.6731 0 32C0 14.3269 14.3269 0 32 0C49.6731 0 64 14.3269 64 32ZM62 32C62 48.5685 48.5685 62 32 62C15.4315 62 2 48.5685 2 32C2 15.4315 15.4315 2 32 2C48.5685 2 62 15.4315 62 32Z" fill="black"/>
    <path fill-rule="evenodd" clip-rule="evenodd" d="M43 12C44.1046 12 45 12.8954 45 14V33.4578C44.3588 33.2564 43.6897 33.1179 43 33.0494V14H27.5V22.5C27.5 23.6046 26.6046 24.5 25.5 24.5H17V48H33.3378C33.7601 48.73 34.272 49.4017 34.8586 50H17C15.8954 50 15 49.1046 15 48V24L21 18L27 12H43Z" fill="black"/>
    <path fill-rule="evenodd" clip-rule="evenodd" d="M29 24C29 23.4477 29.4477 23 30 23H39C39.5523 23 40 23.4477 40 24C40 24.5523 39.5523 25 39 25H30C29.4477 25 29 24.5523 29 24ZM20 28C20 27.4477 20.4477 27 21 27H39C39.5523 27 40 27.4477 40 28C40 28.5523 39.5523 29 39 29H21C20.4477 29 20 28.5523 20 28ZM21 31C20.4477 31 20 31.4477 20 32C20 32.5523 20.4477 33 21 33H39C39.5523 33 40 32.5523 40 32C40 31.4477 39.5523 31 39 31H21ZM20 36C20 35.4477 20.4477 35 21 35H35.999C35.2418 35.5689 34.5681 36.2428 33.9993 37H21C20.4477 37 20 36.5523 20 36ZM32.8321 39H21C20.4477 39 20 39.4477 20 40C20 40.5523 20.4477 41 21 41H32.2C32.3412 40.3044 32.5546 39.635 32.8321 39ZM32 43H21C20.4477 43 20 43.4477 20 44C20 44.5523 20.4477 45 21 45H32.2C32.0689 44.3538 32 43.6849 32 43Z" fill="black"/>
    <path fill-rule="evenodd" clip-rule="evenodd" d="M50 43C50 47.4183 46.4183 51 42 51C37.5817 51 34 47.4183 34 43C34 38.5817 37.5817 35 42 35C46.4183 35 50 38.5817 50 43ZM44.5 46C44.7761 46 45 46.2239 45 46.5C45 46.7761 44.7761 47 44.5 47H39.5C39.2239 47 39 46.7761 39 46.5C39 46.2239 39.2239 46 39.5 46H44.5ZM42.0001 38.5C41.7239 38.5 41.5001 38.7239 41.5001 39V43.0858L40.2323 41.818C40.037 41.6228 39.7204 41.6228 39.5252 41.818C39.3299 42.0133 39.3299 42.3299 39.5252 42.5251L41.6465 44.6464C41.8418 44.8417 42.1583 44.8417 42.3536 44.6464L44.4749 42.5251C44.6702 42.3299 44.6702 42.0133 44.4749 41.818C44.2797 41.6228 43.9631 41.6228 43.7678 41.818L42.5001 43.0858V39C42.5001 38.7239 42.2762 38.5 42.0001 38.5Z" fill="black"/>
</svg>