<svg width="64" height="64" viewBox="0 0 64 64" fill="none" xmlns="http://www.w3.org/2000/svg">
<path fill-rule="evenodd" clip-rule="evenodd" d="M64 32C64 49.6731 49.6731 64 32 64C14.3269 64 0 49.6731 0 32C0 14.3269 14.3269 0 32 0C49.6731 0 64 14.3269 64 32ZM62 32C62 48.5685 48.5685 62 32 62C15.4315 62 2 48.5685 2 32C2 15.4315 15.4315 2 32 2C48.5685 2 62 15.4315 62 32Z" fill="black"/>
<path fill-rule="evenodd" clip-rule="evenodd" d="M40.4285 44.2569L43.2569 41.4285L34.7717 32.9433L44.1793 23.5356L41.3509 20.7072L31.9433 30.1148L21.8284 20L19 22.8284L29.1148 32.9433L19.9224 42.1357L22.7508 44.9641L31.9433 35.7717L40.4285 44.2569Z" fill="#F7323F"/>
</svg>
