<svg width="47" height="47" viewBox="0 0 47 47" fill="none" xmlns="http://www.w3.org/2000/svg">
<path fill-rule="evenodd" clip-rule="evenodd" d="M23.4997 46.8335C36.3863 46.8335 46.8331 36.3867 46.8331 23.5001C46.8331 10.6135 36.3863 0.166809 23.4997 0.166809C10.6131 0.166809 0.166382 10.6135 0.166382 23.5001C0.166382 36.3867 10.6131 46.8335 23.4997 46.8335ZM38.5598 38.1356C42.2359 34.3535 44.4996 29.1911 44.4996 23.5001C44.4996 11.9022 35.0976 2.50014 23.4997 2.50014C11.9017 2.50014 2.49972 11.9022 2.49972 23.5001C2.49972 29.1911 4.76352 34.3535 8.43971 38.1356C11.8367 33.5058 17.3172 30.5001 23.4997 30.5001C29.6822 30.5001 35.1627 33.5058 38.5598 38.1356ZM32.8331 18.8335C32.8331 23.9881 28.6544 28.1668 23.4997 28.1668C18.3451 28.1668 14.1664 23.9881 14.1664 18.8335C14.1664 13.6788 18.3451 9.50014 23.4997 9.50014C28.6544 9.50014 32.8331 13.6788 32.8331 18.8335Z" fill="black"/>
</svg>
