<svg width="48" height="48" viewBox="0 0 48 48" fill="none" xmlns="http://www.w3.org/2000/svg">
<path fill-rule="evenodd" clip-rule="evenodd" d="M40.8151 41.1247C45.2496 36.7698 48 30.7062 48 24C48 10.7452 37.2547 0 24 0C10.7452 0 0 10.7452 0 24C0 37.2547 10.7452 48 24 48C29.6607 48 34.8636 46.0402 38.9676 42.762C38.9676 42.7624 38.9676 42.7624 38.9676 42.7624C39.6113 42.2479 40.228 41.7014 40.8151 41.1247ZM39.4903 39.0536C43.2714 35.1635 45.5999 29.8536 45.5999 24C45.5999 12.0706 35.9292 2.4 24 2.4C12.0706 2.4 2.4 12.0706 2.4 24C2.4 29.8536 4.72848 35.1635 8.50977 39.0536C12.0038 34.2916 17.6409 31.2 24.0001 31.2C30.3592 31.2 35.9962 34.2915 39.4903 39.0536ZM37.7119 40.6906C34.668 36.4001 29.661 33.6 24.0001 33.6C18.3391 33.6 13.332 36.4001 10.2883 40.6906C14.018 43.7581 18.7939 45.5999 24 45.5999C29.2061 45.5999 33.9821 43.7581 37.7119 40.6906ZM24 28.8C29.3019 28.8 33.6 24.502 33.6 19.2C33.6 13.8981 29.3019 9.6 24 9.6C18.698 9.6 14.4 13.8981 14.4 19.2C14.4 24.502 18.698 28.8 24 28.8ZM24 26.4C27.9764 26.4 31.2 23.1765 31.2 19.2C31.2 15.2236 27.9764 12 24 12C20.0235 12 16.8 15.2236 16.8 19.2C16.8 23.1765 20.0235 26.4 24 26.4Z" fill="black"/>
</svg>
