<svg width="14" height="14" viewBox="0 0 14 14" fill="none" xmlns="http://www.w3.org/2000/svg">
<path fill-rule="evenodd" clip-rule="evenodd" d="M7.00001 13.6666C10.6819 13.6666 13.6667 10.6819 13.6667 6.99998C13.6667 3.31808 10.6819 0.333313 7.00001 0.333313C3.31811 0.333313 0.333344 3.31808 0.333344 6.99998C0.333344 10.6819 3.31811 13.6666 7.00001 13.6666ZM11.3029 11.1815C12.3532 10.1009 13 8.62598 13 6.99998C13 3.68627 10.3137 0.99998 7.00001 0.99998C3.6863 0.99998 1.00001 3.68627 1.00001 6.99998C1.00001 8.62598 1.64681 10.1009 2.69715 11.1815C3.66772 9.85874 5.23358 8.99998 7.00001 8.99998C8.76644 8.99998 10.3323 9.85874 11.3029 11.1815ZM9.66668 5.66665C9.66668 7.13941 8.47277 8.33331 7.00001 8.33331C5.52725 8.33331 4.33334 7.13941 4.33334 5.66665C4.33334 4.19389 5.52725 2.99998 7.00001 2.99998C8.47277 2.99998 9.66668 4.19389 9.66668 5.66665Z" fill="#666666"/>
</svg>
