<svg width="16" height="16" viewBox="0 0 16 16" fill="none" xmlns="http://www.w3.org/2000/svg">
<path fill-rule="evenodd" clip-rule="evenodd" d="M13.6051 13.7082C15.0832 12.2566 16 10.2354 16 8C16 3.58172 12.4183 0 8 0C3.58172 0 0 3.58172 0 8C0 12.4183 3.58172 16 8 16C9.8869 16 11.6212 15.3467 12.9891 14.2541C12.9892 14.2541 12.9892 14.2541 12.9892 14.2542C13.2038 14.0828 13.4094 13.9005 13.6051 13.7083C13.6051 13.7083 13.6051 13.7082 13.6051 13.7082ZM13.1635 13.0178C14.4238 11.721 15.1999 9.95116 15.1999 8.00001C15.1999 4.02356 11.9764 0.80001 7.99992 0.80001C4.02347 0.80001 0.799918 4.02356 0.799918 8.00001C0.799918 9.95127 1.57612 11.7212 2.83659 13.018C4.00127 11.4306 5.88033 10.4 8.0001 10.4C10.1198 10.4 11.9988 11.4305 13.1635 13.0178ZM12.5706 13.5635C11.556 12.1333 9.88699 11.2 8.00002 11.2C6.113 11.2 4.44397 12.1334 3.4294 13.5636C4.67262 14.5861 6.26458 15.2 7.99992 15.2C9.73532 15.2 11.3273 14.586 12.5706 13.5635ZM8 9.60001C9.76731 9.60001 11.2 8.16732 11.2 6.40001C11.2 4.6327 9.76731 3.20001 8 3.20001C6.23269 3.20001 4.8 4.6327 4.8 6.40001C4.8 8.16732 6.23269 9.60001 8 9.60001ZM7.99992 8.80002C9.3254 8.80002 10.3999 7.7255 10.3999 6.40002C10.3999 5.07454 9.3254 4.00002 7.99992 4.00002C6.67443 4.00002 5.59992 5.07454 5.59992 6.40002C5.59992 7.7255 6.67443 8.80002 7.99992 8.80002Z" fill="#666666"/>
</svg>
