<svg width="16" height="16" viewBox="0 0 16 16" fill="none" xmlns="http://www.w3.org/2000/svg">
<path fill-rule="evenodd" clip-rule="evenodd" d="M14 1.75H5.75V3.625L14.25 3.625V2C14.25 1.86193 14.1381 1.75 14 1.75ZM16 3.625V5.375V7.125V8.875V10.625V12.375V14C16 15.1046 15.1046 16 14 16H5.75H4H2C0.895431 16 0 15.1046 0 14V12.375V10.625V8.875V7.125V5.375V3.625V2C0 0.895431 0.895431 0 2 0H4H5.75H14C15.1046 0 16 0.895431 16 2V3.625ZM1.75 12.375V14C1.75 14.1381 1.86193 14.25 2 14.25H4V12.375H1.75ZM4 10.625H1.75V8.875H4V10.625ZM5.75 12.375V14.25H14C14.1381 14.25 14.25 14.1381 14.25 14V12.375L5.75 12.375ZM14.25 10.625L5.75 10.625V8.875L14.25 8.875V10.625ZM14.25 5.375V7.125L5.75 7.125V5.375L14.25 5.375ZM4 5.375V7.125H1.75V5.375H4ZM4 3.625L1.75 3.625V2C1.75 1.86193 1.86193 1.75 2 1.75H4V3.625Z" fill="#000000"/>
</svg>
