<svg width="16" height="16" viewBox="0 0 16 16" fill="none" xmlns="http://www.w3.org/2000/svg">
<path fill-rule="evenodd" clip-rule="evenodd" d="M14 1.75H8.875V7.125H14.25V2C14.25 1.86193 14.1381 1.75 14 1.75ZM16 7.125V8.875V14C16 15.1046 15.1046 16 14 16H8.875H7.125H2C0.895431 16 0 15.1046 0 14V8.875V7.125V2C0 0.895431 0.895431 0 2 0H7.125H8.875H14C15.1046 0 16 0.895431 16 2V7.125ZM1.75 8.875V14C1.75 14.1381 1.86193 14.25 2 14.25H7.125V8.875H1.75ZM7.125 7.125H1.75V2C1.75 1.86193 1.86193 1.75 2 1.75H7.125V7.125ZM8.875 8.875V14.25H14C14.1381 14.25 14.25 14.1381 14.25 14V8.875H8.875Z" fill="black"/>
</svg>
