<svg width="14" height="14" viewBox="0 0 14 14" fill="none" xmlns="http://www.w3.org/2000/svg">
<path d="M6.1946 1.10215C6.26894 0.951591 6.38391 0.824828 6.52652 0.736193C6.66913 0.647558 6.83369 0.600586 7.00161 0.600586C7.16952 0.600586 7.33408 0.647558 7.47669 0.736193C7.6193 0.824828 7.73427 0.951591 7.8086 1.10215L9.32961 4.18415L12.7306 4.67815C12.8969 4.70213 13.0531 4.77216 13.1816 4.88033C13.3102 4.98849 13.4058 5.13046 13.4579 5.29019C13.5099 5.44991 13.5162 5.62101 13.476 5.78412C13.4359 5.94723 13.3508 6.09585 13.2306 6.21315L10.7686 8.61315L11.3496 12.0002C11.3778 12.1656 11.3592 12.3357 11.2959 12.4912C11.2325 12.6466 11.127 12.7813 10.9911 12.8799C10.8553 12.9785 10.6945 13.0372 10.5271 13.0492C10.3597 13.0613 10.1922 13.0263 10.0436 12.9482L7.00161 11.3502L3.9596 12.9501C3.81086 13.0284 3.64315 13.0635 3.47549 13.0514C3.30783 13.0393 3.14692 12.9804 3.01098 12.8816C2.87504 12.7827 2.76952 12.6477 2.70635 12.4919C2.64319 12.3361 2.62492 12.1658 2.6536 12.0002L3.2336 8.61315L0.773605 6.21415C0.653382 6.09691 0.568356 5.94838 0.528142 5.78534C0.487928 5.6223 0.494128 5.45126 0.546043 5.29157C0.597958 5.13187 0.693516 4.98988 0.821913 4.88165C0.95031 4.77343 1.10642 4.70328 1.27261 4.67915L4.67261 4.18515L6.1946 1.10315V1.10215ZM7.00061 1.72615L5.54661 4.67415C5.48204 4.80486 5.3867 4.91792 5.26877 5.00363C5.15084 5.08933 5.01386 5.1451 4.86961 5.16615L1.6166 5.63915L3.9706 7.93315C4.07485 8.03502 4.1528 8.16069 4.19774 8.29934C4.24268 8.438 4.25327 8.5855 4.22861 8.72915L3.6736 11.9692L6.58361 10.4391C6.71269 10.3714 6.8563 10.3359 7.00211 10.3359C7.14791 10.3359 7.29153 10.3714 7.42061 10.4391L10.3306 11.9692L9.7746 8.72915C9.74994 8.5855 9.76053 8.438 9.80547 8.29934C9.85041 8.16069 9.92836 8.03502 10.0326 7.93315L12.3866 5.63915L9.13361 5.16615C8.98935 5.1451 8.85237 5.08933 8.73444 5.00363C8.61651 4.91792 8.52117 4.80486 8.45661 4.67415L7.00061 1.72615Z" fill="#666666"/>
</svg>
