<svg width="14" height="14" viewBox="0 0 14 14" fill="none" xmlns="http://www.w3.org/2000/svg">
<path d="M6.28224 1.31942C6.34826 1.18545 6.45047 1.07263 6.57729 0.993746C6.70411 0.914857 6.85049 0.873047 6.99984 0.873047C7.1492 0.873047 7.29557 0.914857 7.42239 0.993746C7.54922 1.07263 7.65142 1.18545 7.71744 1.31942L9.26144 4.44822L12.715 4.94982C12.8628 4.97128 13.0016 5.03366 13.1158 5.12991C13.2299 5.22615 13.3148 5.35242 13.361 5.49443C13.4071 5.63644 13.4125 5.78852 13.3767 5.93347C13.3409 6.07842 13.2652 6.21045 13.1582 6.31462L10.659 8.75062L11.2494 12.1898C11.2746 12.3369 11.2582 12.4882 11.2019 12.6264C11.1457 12.7647 11.0519 12.8845 10.9311 12.9722C10.8103 13.0599 10.6674 13.1121 10.5186 13.1228C10.3697 13.1336 10.2208 13.1025 10.0886 13.033L7.00064 11.409L3.91104 13.033C3.77895 13.1023 3.63013 13.1332 3.48138 13.1223C3.33264 13.1115 3.18989 13.0593 3.06925 12.9716C2.94861 12.8839 2.85489 12.7642 2.79866 12.6261C2.74243 12.4879 2.72594 12.3368 2.75104 12.1898L3.34064 8.74982L0.841441 6.31462C0.734479 6.21045 0.658804 6.07842 0.622979 5.93347C0.587154 5.78852 0.592608 5.63644 0.638723 5.49443C0.684839 5.35242 0.769776 5.22615 0.883926 5.12991C0.998075 5.03366 1.13688 4.97128 1.28464 4.94982L4.73824 4.44822L6.28224 1.32022V1.31942Z" fill="#666666"/>
</svg>
    