<svg width="15" height="16" viewBox="0 0 15 16" fill="none" xmlns="http://www.w3.org/2000/svg">
<path d="M7.6917 5.51126e-09C8.34761 -4.29406e-05 8.97867 0.250907 9.45544 0.70137C9.9322 1.15183 10.2185 1.76766 10.2556 2.42252L10.2596 2.5679H14.4077C14.5579 2.56795 14.7024 2.62498 14.8121 2.72748C14.9218 2.82999 14.9885 2.97031 14.9988 3.1201C15.009 3.2699 14.962 3.41799 14.8673 3.53446C14.7725 3.65093 14.6371 3.72709 14.4883 3.74756L14.4077 3.75309H13.7788L12.7675 14.0405C12.7168 14.5534 12.4855 15.0315 12.1148 15.3896C11.7441 15.7477 11.2583 15.9623 10.7439 15.9953L10.6049 16H4.77851C4.26293 16 3.76415 15.8166 3.37131 15.4827C2.97847 15.1488 2.71717 14.686 2.63412 14.1772L2.61595 14.0397L1.6038 3.75309H0.975649C0.832449 3.75308 0.694095 3.70122 0.586173 3.6071C0.478251 3.51297 0.408063 3.38296 0.388587 3.24109L0.383057 3.16049C0.383063 3.01729 0.434922 2.87894 0.529045 2.77102C0.623168 2.6631 0.753187 2.59291 0.895057 2.57343L0.975649 2.5679H5.1238C5.1238 1.88685 5.39434 1.2337 5.87592 0.752121C6.35749 0.270546 7.01065 5.51126e-09 7.6917 5.51126e-09ZM12.5881 3.75309H2.79451L3.7956 13.9236C3.81777 14.1505 3.91777 14.3628 4.07864 14.5244C4.23951 14.6859 4.45134 14.7869 4.67817 14.8101L4.77851 14.8148H10.6049C11.079 14.8148 11.4811 14.479 11.5728 14.0231L11.5886 13.9236L12.5873 3.75309H12.5881ZM9.07442 5.92593C9.21762 5.92593 9.35597 5.97779 9.46389 6.07191C9.57181 6.16604 9.642 6.29606 9.66148 6.43793L9.66701 6.51852V12.0494C9.66696 12.1995 9.60993 12.3441 9.50742 12.4538C9.40492 12.5635 9.2646 12.6302 9.11481 12.6404C8.96501 12.6506 8.81692 12.6036 8.70045 12.5089C8.58398 12.4141 8.50782 12.2787 8.48735 12.13L8.48182 12.0494V6.51852C8.48182 6.36135 8.54426 6.21063 8.65539 6.09949C8.76652 5.98836 8.91725 5.92593 9.07442 5.92593ZM6.30898 5.92593C6.45218 5.92593 6.59054 5.97779 6.69846 6.07191C6.80638 6.16604 6.87657 6.29606 6.89604 6.43793L6.90158 6.51852V12.0494C6.90153 12.1995 6.84449 12.3441 6.74199 12.4538C6.63949 12.5635 6.49917 12.6302 6.34937 12.6404C6.19958 12.6506 6.05149 12.6036 5.93502 12.5089C5.81855 12.4141 5.74239 12.2787 5.72192 12.13L5.71639 12.0494V6.51852C5.71639 6.36135 5.77882 6.21063 5.88996 6.09949C6.00109 5.98836 6.15182 5.92593 6.30898 5.92593ZM7.6917 1.18519C7.34468 1.1852 7.01036 1.31569 6.75509 1.55076C6.49983 1.78583 6.34228 2.10829 6.31372 2.45412L6.30898 2.5679H9.07442C9.07442 2.20118 8.92874 1.84948 8.66943 1.59017C8.41012 1.33086 8.05842 1.18519 7.6917 1.18519Z" fill="#000000"/>
</svg>
