<svg width="19" height="19" viewBox="0 0 19 19" fill="none" xmlns="http://www.w3.org/2000/svg">
<path fill-rule="evenodd" clip-rule="evenodd" d="M19 9.5C19 14.7467 14.7467 19 9.5 19C4.25329 19 0 14.7467 0 9.5C0 4.25329 4.25329 0 9.5 0C14.7467 0 19 4.25329 19 9.5ZM18.4062 9.5C18.4062 14.4188 14.4188 18.4062 9.5 18.4062C4.58121 18.4062 0.59375 14.4188 0.59375 9.5C0.59375 4.58121 4.58121 0.59375 9.5 0.59375C14.4188 0.59375 18.4062 4.58121 18.4062 9.5Z" fill="black"/>
<path d="M9.05219 10.7874C9.01705 10.7874 8.98542 10.7768 8.9573 10.7558C8.93621 10.7276 8.92567 10.696 8.92567 10.6609L8.77807 6.06402C8.77807 6.02887 8.78861 6.00076 8.8097 5.97967C8.83781 5.95156 8.86944 5.9375 8.90459 5.9375H10.1381C10.1733 5.9375 10.2014 5.95156 10.2225 5.97967C10.2506 6.00076 10.2647 6.02887 10.2647 6.06402L10.1171 10.6609C10.1171 10.696 10.103 10.7276 10.0749 10.7558C10.0538 10.7768 10.0257 10.7874 9.99054 10.7874H9.05219ZM9.50555 13.3072C9.25251 13.3072 9.03813 13.2194 8.86241 13.0436C8.69372 12.8609 8.60938 12.643 8.60938 12.39C8.60938 12.1439 8.70075 11.9331 8.8835 11.7574C9.06625 11.5746 9.2736 11.4832 9.50555 11.4832C9.7375 11.4832 9.94485 11.5746 10.1276 11.7574C10.3103 11.9331 10.4017 12.1439 10.4017 12.39C10.4017 12.65 10.3174 12.8679 10.1487 13.0436C9.97999 13.2194 9.76561 13.3072 9.50555 13.3072Z" fill="#F7323F"/>
</svg>