<?xml version="1.0" encoding="utf-8"?>
<!-- Generator: Adobe Illustrator 21.0.0, SVG Export Plug-In . SVG Version: 6.00 Build 0)  -->
<svg version="1.1" id="Layer_1" xmlns="http://www.w3.org/2000/svg" xmlns:xlink="http://www.w3.org/1999/xlink" x="0px" y="0px"
	 viewBox="0 0 335.2 111.5" style="enable-background:new 0 0 335.2 111.5;" xml:space="preserve">
<style type="text/css">
	.st0{fill:#F5333F;}
</style>
<g>
	<g>
		<path d="M103.9,109.7c-17.2-2.2-31.7-6.1-43.5-11.7c-11.2,5.3-26,9.8-44.4,13.5c-0.6-1.9-1.6-3.9-3.1-6.1
			c16.3-2.5,29.9-5.8,40.8-9.8C45.1,90.9,37,84.4,29.3,76C22.5,87.5,14.1,97.3,4,105.4c-1.2-1.9-2.5-3.7-4-5.6
			c13.9-10,24.6-24.4,32-43.4H2.7v-5.6h31.5c1.2-3.7,2.2-7.5,3.1-11.2l6.2,0.9c-0.9,3.7-1.9,7.2-3.1,10.3H107v5.6H38.2
			c-1.5,4.1-3.1,7.9-4.9,11.7h60.4v6.5c-7.7,8.1-16.4,15-26.2,20.6c10.9,3.7,24.1,6.5,39.5,8.4c-0.6,0.9-1.5,2.5-2.7,4.7
			C104.1,108.9,103.9,109.4,103.9,109.7z M5.9,30.3h69.7c1.2-1.9,3-4.5,5.3-7.9c3-4.7,5.2-7.9,6.7-9.8l5.3,2.8
			c-1.5,2.2-3.7,5.3-6.7,9.3c-1.8,2.5-3.1,4.4-4,5.6h21.3v14.9h-5.8v-9.3H11.6v9.3H5.9V30.3z M102.6,8.8c-18.6,0.9-50,2-94.1,3.3
			C8.2,9.9,7.8,7.9,7.2,6c30.2,0,61.4-1.1,93.6-3.3L102.6,8.8z M19.2,16.7l4.4-2.8c3,3.7,5.8,7.8,8.4,12.1l-5.3,3.3
			c-1.2-1.9-2.8-4.7-4.9-8.4C20.6,19.1,19.8,17.7,19.2,16.7z M86.2,73.7h-51c7.4,7.8,16,14,25.7,18.7C70.7,87.4,79.1,81.2,86.2,73.7
			z M49.8,14.9l4.9-2.3c0.3,0.6,0.9,1.6,1.8,2.8c2.4,4.4,4.3,7.9,5.8,10.7L57,28.9C55.1,24.5,52.7,19.8,49.8,14.9z"/>
		<path d="M117.7,14.9c0-1.2-0.3-3.1-0.9-5.6c12.1-0.6,24.9-2,38.2-4.2l1.3,6.1c-5.6,0.9-11.2,1.6-16.9,1.9v21.5h17.3v5.6h-17.3v14
			l2.7-2.8c0.9,0.6,2.2,1.9,4,3.7c5.3,5,8.9,8.4,10.7,10.3l-4.4,4.2c-0.9-0.9-2.7-2.6-5.3-5.1c-3.5-3.7-6.1-6.4-7.5-7.9v54.7h-5.8
			V52.4c-4.1,14.6-9.8,27.1-16.9,37.4c-0.9-2.5-1.9-4.8-3.1-7c7.7-10.6,14.3-24.8,20-42.5h-18.6v-5.6h18.6V14.1
			c-1.8,0.3-4.4,0.5-8,0.5C122.1,14.7,119.5,14.9,117.7,14.9z M154.1,76.1l43-4.2V0h5.8v71.5l18.2-1.9l0.4,6.1l-18.6,1.9v33.6h-5.8
			V78l-42.6,4.2L154.1,76.1z M160.7,44.8l4-4.2c5.9,5,11.8,10.1,17.8,15.4l-4.4,4.7c-2.1-1.9-4.9-4.4-8.4-7.5
			C165.8,49.4,162.8,46.6,160.7,44.8z M167.4,16.7l3.6-4.2c4.7,3.4,10.9,8.7,18.6,15.9l-4.4,4.7C178.9,26.9,173,21.4,167.4,16.7z"/>
		<path class="st0" d="M247.3,89.6c3.8-2.5,9.6-7.2,17.3-14l0.9,7c-5.6,4.4-11.7,9.3-18.2,14.9c-0.9,0.3-2.4,1.6-4.4,3.7l-4.4-4.7
			c2.1-2.5,3.1-5.9,3.1-10.3V44.8h-14.2v-6.1h20v50.9H247.3z M252.6,26.1c-1.2-1.6-3.4-4.2-6.7-7.9c-4.7-5.3-8-9-9.8-11.2l4.9-3.7
			c1.2,1.6,3.3,3.9,6.2,7c5.6,6.2,9,10.1,10.2,11.7L252.6,26.1z M283.2,74.2l5.3,3.3c-6.8,10.6-15.2,21.6-25.3,33.2l-4.9-4.7
			C267.5,96.6,275.8,86,283.2,74.2z M269.5,7.9h57.7V64h-57.7V7.9z M275.7,13.9v44.4h45.7V13.9H275.7z M306.3,77.5l4.9-3.3
			c8.6,10.9,16.6,21.3,24,31.3l-5.3,4.2C324.2,101.6,316.4,90.9,306.3,77.5z"/>
	</g>
</g>
</svg>
