<?xml version="1.0" encoding="utf-8"?>
<!-- Generator: Adobe Illustrator 23.0.4, SVG Export Plug-In . SVG Version: 6.00 Build 0)  -->
<svg version="1.1" id="Layer_1" xmlns="http://www.w3.org/2000/svg" xmlns:xlink="http://www.w3.org/1999/xlink" x="0px" y="0px"
	 viewBox="23 23 54 54" xml:space="preserve">
<style type="text/css">
	.st0{fill:none;stroke:#000000;stroke-miterlimit:10;}
	.st1{fill:#ED1C24;}
</style>
<circle class="st0" cx="50" cy="50" r="25"/>
<g>
	<path class="st1" d="M46.85,59.12c0-1.7,1.49-3.05,3.02-3.05c1.53,0,3.02,1.35,3.02,3.05s-1.24,3.09-3.02,3.09
		C48.12,62.2,46.85,60.82,46.85,59.12z M47.91,53.29l-0.5-15.48c0-0.25,0.18-0.43,0.43-0.43H52c0.25,0,0.43,0.18,0.43,0.43
		l-0.5,15.48c0,0.25-0.18,0.43-0.43,0.43h-3.16C48.09,53.72,47.91,53.54,47.91,53.29z"/>
</g>
</svg>